<?xml version="1.0" encoding="utf-8"?>
<!-- Generator: Adobe Illustrator 19.2.1, SVG Export Plug-In . SVG Version: 6.00 Build 0)  -->
<svg version="1.1" id="Lager_1" xmlns="http://www.w3.org/2000/svg" xmlns:xlink="http://www.w3.org/1999/xlink" x="0px" y="0px"
	 viewBox="0 0 143.5 36.2" style="enable-background:new 0 0 143.5 36.2;" xml:space="preserve">
<style type="text/css">
	.st0{clip-path:url(#SVGID_2_);fill:#263B80;}
	.st1{fill:#159BD7;}
	.st2{fill:#263B80;}
	.st3{clip-path:url(#SVGID_4_);fill:#263B80;}
	.st4{clip-path:url(#SVGID_6_);fill:#159BD7;}
	.st5{clip-path:url(#SVGID_8_);fill:#263B80;}
	.st6{clip-path:url(#SVGID_10_);fill:#263B80;}
	.st7{fill:#232C65;}
</style>
<g>
	<g>
		<g>
			<defs>
				<rect id="SVGID_1_" x="1" width="142.5" height="36.2"/>
			</defs>
			<clipPath id="SVGID_2_">
				<use xlink:href="#SVGID_1_"  style="overflow:visible;"/>
			</clipPath>
			<path class="st0" d="M27.1,2.8c-1.7-1.9-4.7-2.7-8.6-2.7H7.3c-0.8,0-1.5,0.6-1.6,1.4L1,31.1c-0.1,0.6,0.4,1.1,1,1.1h6.9l1.7-11
				l-0.1,0.3c0.1-0.8,0.8-1.4,1.6-1.4h3.3c6.5,0,11.5-2.6,13-10.2c0-0.2,0.1-0.4,0.1-0.7c-0.2-0.1-0.2-0.1,0,0
				C29.1,6.4,28.6,4.5,27.1,2.8"/>
		</g>
	</g>
	<path class="st1" d="M112,16.9c-0.4,2.8-2.6,2.8-4.6,2.8h-1.2l0.8-5.2c0-0.3,0.3-0.5,0.6-0.5h0.5c1.4,0,2.7,0,3.4,0.8
		C112,15.2,112.2,15.9,112,16.9 M111.1,9.6h-7.8c-0.5,0-1,0.4-1.1,0.9l-3.1,19.9c-0.1,0.4,0.2,0.7,0.6,0.7h4c0.4,0,0.7-0.3,0.7-0.6
		l0.9-5.6c0.1-0.5,0.5-0.9,1.1-0.9h2.5c5.1,0,8.1-2.5,8.8-7.4c0.3-2.1,0-3.8-1-5C115.7,10.3,113.7,9.6,111.1,9.6"/>
	<path class="st2" d="M56.7,16.9c-0.4,2.8-2.6,2.8-4.6,2.8h-1.2l0.8-5.2c0-0.3,0.3-0.5,0.6-0.5h0.5c1.4,0,2.7,0,3.4,0.8
		C56.7,15.2,56.8,15.9,56.7,16.9 M55.8,9.6H48c-0.5,0-1,0.4-1.1,0.9l-3.1,19.9c-0.1,0.4,0.2,0.7,0.6,0.7h3.7c0.5,0,1-0.4,1.1-0.9
		l0.8-5.4c0.1-0.5,0.5-0.9,1.1-0.9h2.5c5.1,0,8.1-2.5,8.8-7.4c0.3-2.1,0-3.8-1-5C60.3,10.3,58.4,9.6,55.8,9.6"/>
	<path class="st2" d="M73.8,24c-0.4,2.1-2,3.5-4.2,3.5c-1.1,0-1.9-0.3-2.5-1c-0.5-0.6-0.8-1.6-0.6-2.6c0.3-2.1,2-3.6,4.2-3.6
		c1.1,0,1.9,0.3,2.5,1C73.7,22.1,74,23,73.8,24 M79,16.8h-3.7c-0.3,0-0.6,0.2-0.6,0.5l-0.2,1l-0.3-0.4c-0.8-1.2-2.6-1.6-4.4-1.6
		c-4.1,0-7.6,3.1-8.3,7.5c-0.4,2.2,0.1,4.3,1.4,5.7c1.1,1.3,2.7,1.9,4.7,1.9c3.3,0,5.1-2.1,5.1-2.1l-0.2,1c-0.1,0.4,0.2,0.7,0.6,0.7
		h3.3c0.5,0,1-0.4,1.1-0.9l2-12.7C79.7,17.1,79.4,16.8,79,16.8"/>
	<path class="st1" d="M129.1,24c-0.4,2.1-2,3.5-4.2,3.5c-1.1,0-1.9-0.3-2.5-1c-0.6-0.6-0.8-1.6-0.6-2.6c0.3-2.1,2-3.6,4.2-3.6
		c1.1,0,1.9,0.3,2.5,1C129,22.1,129.3,23,129.1,24 M134.3,16.8h-3.7c-0.3,0-0.6,0.2-0.6,0.5l-0.2,1l-0.3-0.4
		c-0.8-1.2-2.6-1.6-4.4-1.6c-4.1,0-7.6,3.1-8.3,7.5c-0.4,2.2,0.1,4.3,1.4,5.7c1.1,1.3,2.8,1.9,4.7,1.9c3.3,0,5.1-2.1,5.1-2.1l-0.2,1
		c-0.1,0.4,0.2,0.7,0.6,0.7h3.3c0.5,0,1-0.4,1.1-0.9l2-12.7C135,17.1,134.7,16.8,134.3,16.8"/>
	<g>
		<g>
			<defs>
				<rect id="SVGID_3_" x="1" width="142.5" height="36.2"/>
			</defs>
			<clipPath id="SVGID_4_">
				<use xlink:href="#SVGID_3_"  style="overflow:visible;"/>
			</clipPath>
			<path class="st3" d="M98.7,16.8H95c-0.4,0-0.7,0.2-0.9,0.5L89,24.8l-2.2-7.3c-0.1-0.5-0.6-0.8-1-0.8h-3.7c-0.4,0-0.8,0.4-0.6,0.9
				l4.1,12.1l-3.9,5.5c-0.3,0.4,0,1,0.5,1H86c0.4,0,0.7-0.2,0.9-0.5l12.4-17.9C99.6,17.4,99.3,16.8,98.7,16.8"/>
		</g>
		<g>
			<defs>
				<rect id="SVGID_5_" x="1" width="142.5" height="36.2"/>
			</defs>
			<clipPath id="SVGID_6_">
				<use xlink:href="#SVGID_5_"  style="overflow:visible;"/>
			</clipPath>
			<path class="st4" d="M138.7,10.2l-3.2,20.3c-0.1,0.4,0.2,0.7,0.6,0.7h3.2c0.5,0,1-0.4,1.1-0.9l3.1-19.9c0.1-0.4-0.2-0.7-0.6-0.7
				h-3.6C139,9.6,138.7,9.8,138.7,10.2"/>
		</g>
		<g>
			<defs>
				<rect id="SVGID_7_" x="1" width="142.5" height="36.2"/>
			</defs>
			<clipPath id="SVGID_8_">
				<use xlink:href="#SVGID_7_"  style="overflow:visible;"/>
			</clipPath>
			<path class="st5" d="M27.1,2.8c-1.7-1.9-4.7-2.7-8.6-2.7H7.3c-0.8,0-1.5,0.6-1.6,1.4L1,31.1c-0.1,0.6,0.4,1.1,1,1.1h6.9l1.7-11
				l-0.1,0.3c0.1-0.8,0.8-1.4,1.6-1.4h3.3c6.5,0,11.5-2.6,13-10.2c0-0.2,0.1-0.4,0.1-0.7c-0.2-0.1-0.2-0.1,0,0
				C29.1,6.4,28.6,4.5,27.1,2.8"/>
		</g>
		<g>
			<defs>
				<rect id="SVGID_9_" x="1" width="142.5" height="36.2"/>
			</defs>
			<clipPath id="SVGID_10_">
				<use xlink:href="#SVGID_9_"  style="overflow:visible;"/>
			</clipPath>
			<path class="st6" d="M12.5,9.3c0.1-0.5,0.4-0.9,0.8-1.1c0.2-0.1,0.4-0.1,0.6-0.1h8.8c1,0,2,0.1,2.9,0.2c0.3,0,0.5,0.1,0.7,0.1
				c0.2,0.1,0.5,0.1,0.7,0.2c0.1,0,0.2,0.1,0.3,0.1c0.4,0.1,0.8,0.3,1.2,0.5c0.4-2.8,0-4.7-1.5-6.5C25.3,0.8,22.3,0,18.4,0H7.3
				C6.5,0,5.8,0.6,5.7,1.4L1,31.1c-0.1,0.6,0.4,1.1,1,1.1h6.9l1.7-11L12.5,9.3L12.5,9.3z"/>
		</g>
	</g>
	<path class="st1" d="M28.6,9.2L28.6,9.2c0,0.2-0.1,0.4-0.1,0.7c-1.5,7.6-6.6,10.2-13,10.2h-3.3c-0.8,0-1.5,0.6-1.6,1.4L8.9,32.2
		l-0.5,3c-0.1,0.5,0.3,1,0.8,1H15c0.7,0,1.3-0.5,1.4-1.2l0.1-0.3l1.1-7l0.1-0.4c0.1-0.7,0.7-1.2,1.4-1.2H20c5.7,0,10.1-2.3,11.4-9
		c0.5-2.8,0.3-5.1-1.2-6.7C29.8,10,29.2,9.5,28.6,9.2"/>
	<path class="st7" d="M27.1,8.6c-0.2-0.1-0.5-0.1-0.7-0.2c-0.2-0.1-0.5-0.1-0.7-0.1c-0.9-0.1-1.9-0.2-2.9-0.2H14
		c-0.2,0-0.4,0-0.6,0.1c-0.4,0.2-0.7,0.6-0.8,1.1l-1.9,11.9l-0.1,0.3c0.1-0.8,0.8-1.4,1.6-1.4h3.3c6.5,0,11.5-2.6,13-10.2
		c0-0.2,0.1-0.4,0.1-0.7c-0.4-0.2-0.8-0.4-1.2-0.5C27.3,8.7,27.2,8.6,27.1,8.6"/>
</g>
</svg>
