<?xml version="1.0" encoding="utf-8"?>
<!-- Generator: Adobe Illustrator 18.1.1, SVG Export Plug-In . SVG Version: 6.00 Build 0)  -->
<svg version="1.1" id="Lager_1" xmlns="http://www.w3.org/2000/svg" xmlns:xlink="http://www.w3.org/1999/xlink" x="0px" y="0px"
	 viewBox="0 0 841 81.3" enable-background="new 0 0 841 81.3" xml:space="preserve">
<g>
	<path fill="#3957A7" d="M125.4,76.5c0,2.3-1.9,4.2-4.2,4.2H4.2c-2.3,0-4.2-1.9-4.2-4.2v-70c0-2.3,1.9-4.2,4.2-4.2h117.1
		c2.3,0,4.2,1.9,4.2,4.2V76.5z"/>
	<g>
		<polygon fill="#FFFFFF" points="57.7,53.3 51.6,53.3 55.4,29.8 61.6,29.8 		"/>
		<path fill="#FFFFFF" d="M46.4,29.8l-5.8,16.2l-0.7-3.5v0l-2.1-10.6c0,0-0.3-2.1-2.9-2.1h-9.7l-0.1,0.4c0,0,3,0.6,6.4,2.7l5.3,20.4
			h6.4L53,29.8H46.4z"/>
		<path fill="#FFFFFF" d="M94.6,53.3h5.6l-4.9-23.5h-4.9c-2.3,0-2.8,1.8-2.8,1.8l-9.1,21.8h6.4l1.3-3.5h7.8L94.6,53.3z M87.9,45
			l3.2-8.8l1.8,8.8H87.9z"/>
		<path fill="#FFFFFF" d="M78.9,35.4l0.9-5.1c0,0-2.7-1-5.5-1c-3,0-10.3,1.3-10.3,7.8c0,6.1,8.5,6.2,8.5,9.3c0,3.2-7.6,2.6-10.1,0.6
			l-0.9,5.3c0,0,2.7,1.3,6.9,1.3c4.2,0,10.5-2.2,10.5-8.1c0-6.1-8.6-6.7-8.6-9.3C70.4,33.6,76.3,34,78.9,35.4z"/>
	</g>
	<path fill="#F9A533" d="M39.9,42.5l-2.1-10.6c0,0-0.3-2.1-2.9-2.1h-9.7l-0.1,0.4c0,0,4.6,1,9.1,4.6C38.5,38.2,39.9,42.5,39.9,42.5z
		"/>
</g>
<g>
	<path fill="#13457C" d="M268.6,76c0,2.3-1.9,4.2-4.2,4.2H147.4c-2.3,0-4.2-1.9-4.2-4.2v-70c0-2.3,1.9-4.2,4.2-4.2h117.1
		c2.3,0,4.2,1.9,4.2,4.2V76z"/>
	<g>
		<polygon fill-rule="evenodd" clip-rule="evenodd" fill="#FBB231" points="221,63.5 222.1,63.4 223.3,63.3 224.4,63.2 225.5,63 
			226.6,62.8 227.7,62.5 228.7,62.1 229.7,61.7 230.7,61.2 231.7,60.7 232.7,60.2 233.6,59.6 234.5,59 235.3,58.3 236.1,57.6 
			236.9,56.9 237.7,56.1 238.4,55.3 239,54.4 239.7,53.5 240.2,52.6 240.8,51.7 241.3,50.7 241.7,49.7 242.1,48.7 242.5,47.6 
			242.8,46.5 243.1,45.5 243.3,44.3 243.4,43.2 243.5,42.1 243.5,40.9 243.5,39.8 243.4,38.6 243.3,37.5 243.1,36.4 242.8,35.3 
			242.5,34.3 242.1,33.2 241.7,32.2 241.3,31.2 240.8,30.2 240.2,29.3 239.7,28.4 239,27.5 238.4,26.6 237.7,25.8 236.9,25 
			236.1,24.3 235.3,23.6 234.5,22.9 233.6,22.3 232.7,21.7 231.7,21.2 230.7,20.7 229.7,20.2 228.7,19.8 227.7,19.5 226.6,19.2 
			225.5,18.9 224.4,18.7 223.3,18.6 222.1,18.5 221,18.5 219.8,18.5 218.7,18.6 217.5,18.7 216.4,18.9 215.3,19.2 214.3,19.5 
			213.2,19.8 212.2,20.2 211.2,20.7 210.3,21.2 209.3,21.7 208.4,22.3 207.5,22.9 206.7,23.6 205.9,24.3 205.1,25 204.3,25.8 
			203.6,26.6 203,27.5 202.3,28.4 201.8,29.3 201.2,30.2 200.7,31.2 200.3,32.2 199.9,33.2 199.5,34.3 199.2,35.3 199,36.4 
			198.8,37.5 198.6,38.6 198.5,39.8 198.5,40.9 198.5,42.1 198.6,43.2 198.8,44.3 199,45.5 199.2,46.5 199.5,47.6 199.9,48.7 
			200.3,49.7 200.7,50.7 201.2,51.7 201.8,52.6 202.3,53.5 203,54.4 203.6,55.3 204.3,56.1 205.1,56.9 205.9,57.6 206.7,58.3 
			207.5,59 208.4,59.6 209.3,60.2 210.3,60.7 211.2,61.2 212.2,61.7 213.2,62.1 214.3,62.5 215.3,62.8 216.4,63 217.5,63.2 
			218.7,63.3 219.8,63.4 221,63.5 221,63.5 		"/>
		<polygon fill-rule="evenodd" clip-rule="evenodd" fill="#EC1C2E" points="190.9,63.5 192,63.4 193.2,63.3 194.3,63.2 195.4,63 
			196.5,62.8 197.5,62.5 198.6,62.1 199.6,61.7 200.6,61.2 201.6,60.7 202.5,60.2 203.4,59.6 204.3,59 205.2,58.3 206,57.6 
			206.7,56.9 207.5,56.1 208.2,55.3 208.9,54.4 209.5,53.5 210.1,52.6 210.6,51.7 211.1,50.7 211.6,49.7 212,48.7 212.3,47.6 
			212.6,46.5 212.9,45.5 213.1,44.3 213.2,43.2 213.3,42.1 213.3,40.9 213.3,39.8 213.2,38.6 213.1,37.5 212.9,36.4 212.6,35.3 
			212.3,34.3 212,33.2 211.6,32.2 211.1,31.2 210.6,30.2 210.1,29.3 209.5,28.4 208.9,27.5 208.2,26.6 207.5,25.8 206.7,25 
			206,24.3 205.2,23.6 204.3,22.9 203.4,22.3 202.5,21.7 201.6,21.2 200.6,20.7 199.6,20.2 198.6,19.8 197.5,19.5 196.5,19.2 
			195.4,18.9 194.3,18.7 193.2,18.6 192,18.5 190.9,18.5 189.7,18.5 188.6,18.6 187.4,18.7 186.3,18.9 185.2,19.2 184.2,19.5 
			183.1,19.8 182.1,20.2 181.1,20.7 180.1,21.2 179.2,21.7 178.3,22.3 177.4,22.9 176.5,23.6 175.7,24.3 174.9,25 174.2,25.8 
			173.5,26.6 172.8,27.5 172.2,28.4 171.6,29.3 171,30.2 170.5,31.2 170.1,32.2 169.7,33.2 169.3,34.3 169,35.3 168.8,36.4 
			168.6,37.5 168.4,38.6 168.3,39.8 168.3,40.9 168.3,42.1 168.4,43.2 168.6,44.3 168.8,45.5 169,46.5 169.3,47.6 169.7,48.7 
			170.1,49.7 170.5,50.7 171,51.7 171.6,52.6 172.2,53.5 172.8,54.4 173.5,55.3 174.2,56.1 174.9,56.9 175.7,57.6 176.5,58.3 
			177.4,59 178.3,59.6 179.2,60.2 180.1,60.7 181.1,61.2 182.1,61.7 183.1,62.1 184.2,62.5 185.2,62.8 186.3,63 187.4,63.2 
			188.6,63.3 189.7,63.4 190.9,63.5 190.9,63.5 		"/>
		<polygon fill-rule="evenodd" clip-rule="evenodd" fill="#FBB231" points="203.3,27.1 215.2,27.1 215.2,25.9 204.3,25.9 
			203.3,27.1 203.3,27.1 		"/>
		<polygon fill-rule="evenodd" clip-rule="evenodd" fill="#FBB231" points="201.5,29.8 215.2,29.8 215.2,28.6 202.2,28.6 
			201.5,29.8 201.5,29.8 		"/>
		<polygon fill-rule="evenodd" clip-rule="evenodd" fill="#FBB231" points="200.1,32.5 215.2,32.5 215.2,31.3 200.7,31.3 
			200.1,32.5 200.1,32.5 		"/>
		<polygon fill-rule="evenodd" clip-rule="evenodd" fill="#FBB231" points="199.2,35.2 215.2,35.2 215.2,34 199.6,34 199.2,35.2 
			199.2,35.2 		"/>
		<polygon fill-rule="evenodd" clip-rule="evenodd" fill="#FBB231" points="199.8,48.4 215.3,48.4 215.3,47.1 199.4,47.1 
			199.8,48.4 199.8,48.4 		"/>
		<polygon fill-rule="evenodd" clip-rule="evenodd" fill="#FBB231" points="200.9,51.1 215.3,51.1 215.3,49.9 200.3,49.9 
			200.9,51.1 200.9,51.1 		"/>
		<polygon fill-rule="evenodd" clip-rule="evenodd" fill="#FBB231" points="202.5,53.8 215.3,53.8 215.3,52.6 201.8,52.6 
			202.5,53.8 202.5,53.8 		"/>
		<polygon fill-rule="evenodd" clip-rule="evenodd" fill="#FBB231" points="204.7,56.5 215.3,56.5 215.3,55.3 203.7,55.3 
			204.7,56.5 204.7,56.5 		"/>
		<polygon fill-rule="evenodd" clip-rule="evenodd" fill="#FBB231" points="198.7,37.9 215.2,37.9 215.2,36.7 198.9,36.7 
			198.7,37.9 198.7,37.9 		"/>
		<polygon fill-rule="evenodd" clip-rule="evenodd" fill="#FBB231" points="208.8,45.7 215.1,45.7 215.1,44.4 209,44.4 208.8,45.7 
			208.8,45.7 		"/>
		<polygon fill-rule="evenodd" clip-rule="evenodd" fill="#FBB231" points="209.3,42.9 215.1,42.9 215.1,41.7 209.5,41.7 
			209.3,42.9 209.3,42.9 		"/>
		<polygon fill-rule="evenodd" clip-rule="evenodd" fill="#FBB231" points="198.3,41.7 199.9,41.7 199.9,42.9 198.4,42.9 
			198.3,41.7 198.3,41.7 		"/>
		<polygon fill-rule="evenodd" clip-rule="evenodd" fill="#FFFFFF" points="195.2,40.2 195.1,40.2 195,40.2 194.9,40.2 194.8,40.2 
			194.7,40.2 194.6,40.2 194.5,40.1 194.4,40.1 194.3,40.1 194.2,40.1 194,40.1 193.9,40.1 193.7,40.1 193.6,40.1 193.4,40.1 
			193.2,40.1 193,40.1 192.9,40.2 192.7,40.2 192.6,40.3 192.5,40.3 192.4,40.4 192.3,40.4 192.3,40.5 192.2,40.6 192.2,40.7 
			192.2,40.8 192.2,40.9 192.2,41 192.2,41.1 192.3,41.2 192.4,41.3 192.5,41.4 192.7,41.5 192.9,41.6 193.1,41.7 193.4,41.8 
			193.6,41.9 193.9,41.9 194.1,42 194.3,42.2 194.6,42.3 194.7,42.5 194.9,42.8 195,43 195.1,43.4 195.1,43.8 195.1,44.3 195,44.6 
			195,44.9 194.8,45.2 194.7,45.5 194.5,45.7 194.3,45.9 194.1,46.1 193.9,46.2 193.6,46.3 193.4,46.4 193.1,46.5 192.8,46.6 
			192.6,46.6 192.3,46.6 192.1,46.6 191.9,46.6 191.5,46.6 191.2,46.6 191,46.6 190.7,46.6 190.5,46.6 190.3,46.6 190.1,46.6 
			189.9,46.6 189.8,46.6 189.6,46.5 189.5,46.5 189.3,46.5 189.2,46.4 189.1,46.4 189,46.3 188.8,46.3 189.2,44.6 189.3,44.6 
			189.3,44.7 189.4,44.7 189.6,44.7 189.7,44.8 189.9,44.8 190,44.8 190.2,44.8 190.4,44.9 190.6,44.9 190.8,44.9 191,45 191.2,45 
			191.5,45 191.7,45 191.9,45 192.1,44.9 192.3,44.9 192.4,44.8 192.5,44.7 192.6,44.6 192.7,44.4 192.7,44.3 192.7,44.2 192.7,44 
			192.7,43.8 192.6,43.6 192.4,43.5 192.1,43.4 191.9,43.3 191.6,43.2 191.3,43.1 191,42.9 190.7,42.8 190.4,42.6 190.2,42.3 
			190,42 189.8,41.7 189.8,41.3 189.8,40.8 189.8,40.5 189.9,40.2 190,40 190,39.7 190.2,39.5 190.3,39.3 190.5,39.1 190.7,38.9 
			190.9,38.8 191.1,38.7 191.4,38.6 191.7,38.5 192,38.4 192.4,38.4 192.8,38.3 193.3,38.3 193.5,38.3 193.8,38.3 194,38.3 
			194.3,38.3 194.4,38.4 194.6,38.4 194.8,38.4 194.9,38.4 195,38.4 195.1,38.4 195.2,38.5 195.3,38.5 195.4,38.5 195.5,38.5 
			195.5,38.5 195.6,38.5 195.2,40.2 195.2,40.2 		"/>
		<polyline fill="none" stroke="#FFFFFF" stroke-width="0.216" stroke-miterlimit="2.6131" points="195.2,40.2 195.2,40.2 
			195.1,40.2 195,40.2 194.9,40.2 194.8,40.2 194.7,40.2 194.6,40.2 194.5,40.1 194.4,40.1 194.3,40.1 194.2,40.1 194,40.1 
			193.9,40.1 193.7,40.1 193.6,40.1 193.4,40.1 193.2,40.1 193.2,40.1 193,40.1 192.9,40.2 192.7,40.2 192.6,40.3 192.5,40.3 
			192.4,40.4 192.3,40.4 192.3,40.5 192.2,40.6 192.2,40.7 192.2,40.8 192.2,40.9 192.2,41 192.2,41.1 192.3,41.2 192.4,41.3 
			192.4,41.3 192.5,41.4 192.7,41.5 192.9,41.6 193.1,41.7 193.4,41.8 193.6,41.9 193.9,41.9 194.1,42 194.3,42.2 194.6,42.3 
			194.7,42.5 194.9,42.8 195,43 195.1,43.4 195.1,43.8 195.1,44.3 195.1,44.3 195,44.6 195,44.9 194.8,45.2 194.7,45.5 194.5,45.7 
			194.3,45.9 194.1,46.1 193.9,46.2 193.6,46.3 193.4,46.4 193.1,46.5 192.8,46.6 192.6,46.6 192.3,46.6 192.1,46.6 191.9,46.6 
			191.9,46.6 191.5,46.6 191.2,46.6 191,46.6 190.7,46.6 190.5,46.6 190.3,46.6 190.1,46.6 189.9,46.6 189.8,46.6 189.6,46.5 
			189.5,46.5 189.3,46.5 189.2,46.4 189.1,46.4 189,46.3 188.8,46.3 189.2,44.6 189.2,44.6 189.3,44.6 189.3,44.7 189.4,44.7 
			189.6,44.7 189.7,44.8 189.9,44.8 190,44.8 190.2,44.8 190.4,44.9 190.6,44.9 190.8,44.9 191,45 191.2,45 191.5,45 191.7,45 
			191.9,45 191.9,45 192.1,44.9 192.3,44.9 192.4,44.8 192.5,44.7 192.6,44.6 192.7,44.4 192.7,44.3 192.7,44.2 192.7,44.2 
			192.7,44 192.7,43.8 192.6,43.6 192.4,43.5 192.1,43.4 191.9,43.3 191.6,43.2 191.3,43.1 191,42.9 190.7,42.8 190.4,42.6 
			190.2,42.3 190,42 189.8,41.7 189.8,41.3 189.8,40.8 189.8,40.8 189.8,40.5 189.9,40.2 190,40 190,39.7 190.2,39.5 190.3,39.3 
			190.5,39.1 190.7,38.9 190.9,38.8 191.1,38.7 191.4,38.6 191.7,38.5 192,38.4 192.4,38.4 192.8,38.3 193.3,38.3 193.3,38.3 
			193.5,38.3 193.8,38.3 194,38.3 194.3,38.3 194.4,38.4 194.6,38.4 194.8,38.4 194.9,38.4 195,38.4 195.1,38.4 195.2,38.5 
			195.3,38.5 195.4,38.5 195.5,38.5 195.5,38.5 195.6,38.5 195.2,40.2 		"/>
		<polygon fill-rule="evenodd" clip-rule="evenodd" fill="#FFFFFF" points="197,36.6 199.1,36.6 198.8,38.5 200.1,38.5 199.8,40.2 
			198.5,40.2 197.7,44.4 197.7,44.5 197.8,44.7 197.8,44.8 197.9,44.9 198.1,44.9 198.2,45 198.4,45 198.6,45 198.7,45 198.9,45 
			199,45 199.2,44.9 199.3,44.9 199.3,44.9 199.4,44.9 199.4,44.8 199.1,46.3 199.1,46.3 199,46.3 199,46.4 198.9,46.4 198.9,46.4 
			198.8,46.4 198.7,46.5 198.7,46.5 198.6,46.5 198.5,46.5 198.4,46.5 198.3,46.5 198.2,46.6 198.1,46.6 198,46.6 197.9,46.6 
			197.3,46.6 197,46.6 196.7,46.6 196.5,46.5 196.3,46.5 196.1,46.4 195.9,46.3 195.8,46.2 195.7,46.1 195.6,46 195.6,45.9 
			195.5,45.8 195.5,45.6 195.5,45.5 195.5,45.3 195.5,45.1 195.6,44.9 197,36.6 197,36.6 		"/>
		<polyline fill="none" stroke="#FFFFFF" stroke-width="0.216" stroke-miterlimit="2.6131" points="197,36.6 199.1,36.6 198.8,38.5 
			200.1,38.5 199.8,40.2 198.5,40.2 197.7,44.4 197.7,44.4 197.7,44.5 197.8,44.7 197.8,44.8 197.9,44.9 198.1,44.9 198.2,45 
			198.4,45 198.6,45 198.6,45 198.7,45 198.9,45 199,45 199.2,44.9 199.3,44.9 199.3,44.9 199.4,44.9 199.4,44.8 199.1,46.3 
			199.1,46.3 199.1,46.3 199,46.3 199,46.4 198.9,46.4 198.9,46.4 198.8,46.4 198.7,46.5 198.7,46.5 198.6,46.5 198.5,46.5 
			198.4,46.5 198.3,46.5 198.2,46.6 198.1,46.6 198,46.6 197.9,46.6 197.3,46.6 197.3,46.6 197,46.6 196.7,46.6 196.5,46.5 
			196.3,46.5 196.1,46.4 195.9,46.3 195.8,46.2 195.7,46.1 195.6,46 195.6,45.9 195.5,45.8 195.5,45.6 195.5,45.5 195.5,45.3 
			195.5,45.1 195.6,44.9 197,36.6 		"/>
		<polyline fill="none" stroke="#FFFFFF" stroke-width="0.216" stroke-miterlimit="2.6131" points="201.8,43.1 201.8,43.1 
			201.7,43.2 201.7,43.3 201.7,43.5 201.8,43.6 201.8,43.8 201.9,43.9 202,44 202.1,44.2 202.2,44.3 202.3,44.4 202.4,44.5 
			202.5,44.6 202.7,44.7 202.8,44.8 203,44.8 203.1,44.8 203.1,44.8 203.3,44.9 203.5,44.9 203.7,44.9 203.9,44.9 204.1,44.9 
			204.3,44.9 204.5,44.9 204.7,44.9 204.9,44.9 205.1,44.9 205.3,44.8 205.5,44.7 205.8,44.7 206,44.6 206.2,44.4 206.4,44.3 
			206.1,46.2 206.1,46.2 206,46.2 205.9,46.3 205.7,46.4 205.6,46.4 205.5,46.4 205.4,46.5 205.3,46.5 205.1,46.5 205,46.5 
			204.8,46.6 204.7,46.6 204.5,46.6 204.3,46.6 204.1,46.6 203.9,46.6 203.6,46.6 203.6,46.6 203.3,46.6 202.9,46.6 202.5,46.5 
			202.1,46.4 201.7,46.3 201.4,46.2 201,46 200.7,45.8 200.4,45.5 200.2,45.2 200,44.8 199.8,44.4 199.6,44 199.6,43.5 199.5,42.9 
			199.6,42.3 199.6,42.3 199.6,42 199.6,41.8 199.7,41.5 199.8,41.2 199.9,40.8 200,40.5 200.2,40.2 200.4,39.8 200.7,39.5 
			201,39.3 201.3,39 201.7,38.8 202.1,38.6 202.6,38.4 203.2,38.4 203.8,38.3 203.8,38.3 204.1,38.3 204.4,38.4 204.7,38.4 
			205,38.5 205.3,38.6 205.6,38.7 205.9,38.9 206.1,39.1 206.4,39.4 206.5,39.7 206.7,40 206.8,40.4 206.9,40.9 206.9,41.4 
			206.8,42 206.7,42.6 206.7,43.1 201.1,43.1 201.5,41.6 204.8,41.6 204.8,41.6 204.8,41.4 204.8,41.2 204.8,41.1 204.8,40.9 
			204.7,40.8 204.7,40.6 204.6,40.5 204.5,40.4 204.4,40.3 204.3,40.2 204.2,40.2 204.1,40.1 204,40.1 203.9,40 203.7,40 203.6,40 
			203.6,40 203.4,40 203.3,40 203.2,40.1 203.1,40.1 202.9,40.2 202.8,40.2 202.7,40.3 202.6,40.4 202.5,40.5 202.4,40.6 
			202.3,40.8 202.3,40.9 202.2,41 202.1,41.2 202.1,41.3 202.1,41.5 201.8,43.1 		"/>
		<polygon fill-rule="evenodd" clip-rule="evenodd" fill="#FFFFFF" points="219.9,38.9 219.8,38.9 219.7,38.8 219.6,38.8 
			219.4,38.7 219.3,38.7 219.2,38.6 219.1,38.6 218.9,38.5 218.8,38.5 218.6,38.5 218.5,38.4 218.3,38.4 218.1,38.4 218,38.4 
			217.8,38.4 217.6,38.4 217.4,38.4 217.2,38.4 217,38.4 216.8,38.5 216.6,38.5 216.4,38.6 216.2,38.7 215.9,38.9 215.7,39 
			215.5,39.2 215.4,39.5 215.2,39.7 215,40.1 214.8,40.5 214.7,40.9 214.6,41.4 214.5,41.6 214.5,41.9 214.5,42.2 214.5,42.4 
			214.5,42.7 214.6,42.9 214.6,43.2 214.7,43.4 214.8,43.6 215,43.8 215.1,44 215.3,44.1 215.5,44.3 215.8,44.4 216,44.5 
			216.3,44.5 216.4,44.6 216.5,44.6 216.7,44.6 216.8,44.6 217,44.6 217.1,44.6 217.3,44.6 217.5,44.6 217.7,44.6 217.9,44.6 
			218.1,44.5 218.3,44.4 218.5,44.4 218.7,44.3 218.8,44.1 219,44 218.6,46 218.6,46.1 218.5,46.1 218.5,46.2 218.4,46.2 
			218.3,46.3 218.2,46.3 218.1,46.4 218,46.4 217.8,46.5 217.6,46.5 217.4,46.5 217.1,46.6 216.8,46.6 216.5,46.6 216.1,46.6 
			215.6,46.6 215.3,46.5 215,46.5 214.6,46.3 214.3,46.2 213.9,46 213.6,45.8 213.3,45.5 213,45.2 212.8,44.9 212.6,44.5 
			212.4,44.1 212.2,43.6 212.1,43.1 212.1,42.6 212.1,42 212.2,41.3 212.3,41 212.3,40.7 212.4,40.4 212.5,40.1 212.6,39.9 
			212.7,39.6 212.8,39.4 212.9,39.1 213,38.9 213.1,38.7 213.2,38.5 213.4,38.3 213.5,38.1 213.7,37.9 213.8,37.7 214,37.6 
			214.1,37.4 214.3,37.3 214.5,37.1 214.7,37 214.9,36.9 215.1,36.8 215.3,36.7 215.5,36.6 215.8,36.6 216,36.5 216.3,36.4 
			216.5,36.4 216.8,36.4 217,36.3 217.3,36.3 217.6,36.3 217.8,36.3 218.1,36.3 218.3,36.3 218.5,36.4 218.7,36.4 219,36.5 
			219.1,36.5 219.3,36.5 219.5,36.6 219.7,36.6 219.8,36.7 219.9,36.7 220,36.8 220.1,36.8 220.2,36.8 220.2,36.8 219.9,38.9 
			219.9,38.9 		"/>
		<polyline fill="none" stroke="#FFFFFF" stroke-width="0.216" stroke-miterlimit="2.6131" points="219.9,38.9 219.9,38.9 
			219.8,38.9 219.7,38.8 219.6,38.8 219.4,38.7 219.3,38.7 219.2,38.6 219.1,38.6 218.9,38.5 218.8,38.5 218.6,38.5 218.5,38.4 
			218.3,38.4 218.1,38.4 218,38.4 217.8,38.4 217.6,38.4 217.6,38.4 217.4,38.4 217.2,38.4 217,38.4 216.8,38.5 216.6,38.5 
			216.4,38.6 216.2,38.7 215.9,38.9 215.7,39 215.5,39.2 215.4,39.5 215.2,39.7 215,40.1 214.8,40.5 214.7,40.9 214.6,41.4 
			214.6,41.4 214.5,41.6 214.5,41.9 214.5,42.2 214.5,42.4 214.5,42.7 214.6,42.9 214.6,43.2 214.7,43.4 214.8,43.6 215,43.8 
			215.1,44 215.3,44.1 215.5,44.3 215.8,44.4 216,44.5 216.3,44.5 216.3,44.5 216.4,44.6 216.5,44.6 216.7,44.6 216.8,44.6 
			217,44.6 217.1,44.6 217.3,44.6 217.5,44.6 217.7,44.6 217.9,44.6 218.1,44.5 218.3,44.4 218.5,44.4 218.7,44.3 218.8,44.1 
			219,44 218.6,46 218.6,46 218.6,46.1 218.5,46.1 218.5,46.2 218.4,46.2 218.3,46.3 218.2,46.3 218.1,46.4 218,46.4 217.8,46.5 
			217.6,46.5 217.4,46.5 217.1,46.6 216.8,46.6 216.5,46.6 216.1,46.6 215.6,46.6 215.6,46.6 215.3,46.5 215,46.5 214.6,46.3 
			214.3,46.2 213.9,46 213.6,45.8 213.3,45.5 213,45.2 212.8,44.9 212.6,44.5 212.4,44.1 212.2,43.6 212.1,43.1 212.1,42.6 
			212.1,42 212.2,41.3 212.2,41.3 212.3,41 212.3,40.7 212.4,40.4 212.5,40.1 212.6,39.9 212.7,39.6 212.8,39.4 212.9,39.1 
			213,38.9 213.1,38.7 213.2,38.5 213.4,38.3 213.5,38.1 213.7,37.9 213.8,37.7 214,37.6 214.1,37.4 214.3,37.3 214.5,37.1 
			214.7,37 214.9,36.9 215.1,36.8 215.3,36.7 215.5,36.6 215.8,36.6 216,36.5 216.3,36.4 216.5,36.4 216.8,36.4 217,36.3 
			217.3,36.3 217.6,36.3 217.6,36.3 217.8,36.3 218.1,36.3 218.3,36.3 218.5,36.4 218.7,36.4 219,36.5 219.1,36.5 219.3,36.5 
			219.5,36.6 219.7,36.6 219.8,36.7 219.9,36.7 220,36.8 220.1,36.8 220.2,36.8 220.2,36.8 219.9,38.9 		"/>
		<polygon fill-rule="evenodd" clip-rule="evenodd" fill="#FFFFFF" points="238.5,46.6 236.4,46.6 236.6,45.8 236.6,45.7 
			236.5,45.8 236.3,46 236.2,46.1 236.1,46.2 235.9,46.3 235.8,46.4 235.7,46.5 235.5,46.5 235.4,46.6 235.2,46.6 235.1,46.7 
			234.9,46.7 234.8,46.7 234.6,46.7 234.5,46.7 234.3,46.7 233.9,46.7 233.6,46.6 233.2,46.5 232.9,46.3 232.7,46.1 232.4,45.8 
			232.2,45.5 232,45.2 231.9,44.9 231.8,44.5 231.7,44.2 231.6,43.8 231.6,43.4 231.6,43 231.6,42.6 231.7,42.2 231.8,41.8 
			232,41.3 232.1,41 232.3,40.6 232.5,40.2 232.7,39.9 233,39.7 233.2,39.4 233.5,39.2 233.8,39 234.1,38.8 234.3,38.7 234.6,38.6 
			234.9,38.5 235.3,38.5 235.6,38.5 235.8,38.5 236,38.5 236.2,38.5 236.4,38.6 236.5,38.7 236.7,38.7 236.9,38.8 237,38.9 
			237.1,39 237.2,39.1 237.3,39.2 237.4,39.3 237.5,39.4 237.6,39.5 237.6,39.6 237.7,39.7 237.7,39.7 238.2,36.7 240.3,36.7 
			238.5,46.6 238.5,46.6 		"/>
		<polyline fill="none" stroke="#FFFFFF" stroke-width="0.216" stroke-miterlimit="2.6131" points="238.5,46.6 236.4,46.6 
			236.6,45.8 236.6,45.7 236.6,45.7 236.5,45.8 236.3,46 236.2,46.1 236.1,46.2 235.9,46.3 235.8,46.4 235.7,46.5 235.5,46.5 
			235.4,46.6 235.2,46.6 235.1,46.7 234.9,46.7 234.8,46.7 234.6,46.7 234.5,46.7 234.3,46.7 234.3,46.7 233.9,46.7 233.6,46.6 
			233.2,46.5 232.9,46.3 232.7,46.1 232.4,45.8 232.2,45.5 232,45.2 231.9,44.9 231.8,44.5 231.7,44.2 231.6,43.8 231.6,43.4 
			231.6,43 231.6,42.6 231.7,42.2 231.7,42.2 231.8,41.8 232,41.3 232.1,41 232.3,40.6 232.5,40.2 232.7,39.9 233,39.7 233.2,39.4 
			233.5,39.2 233.8,39 234.1,38.8 234.3,38.7 234.6,38.6 234.9,38.5 235.3,38.5 235.6,38.5 235.6,38.5 235.8,38.5 236,38.5 
			236.2,38.5 236.4,38.6 236.5,38.7 236.7,38.7 236.9,38.8 237,38.9 237.1,39 237.2,39.1 237.3,39.2 237.4,39.3 237.5,39.4 
			237.6,39.5 237.6,39.6 237.7,39.7 237.7,39.7 238.2,36.7 240.3,36.7 238.5,46.6 		"/>
		<polygon fill-rule="evenodd" clip-rule="evenodd" fill="#FBB231" points="235.1,44.8 235.3,44.8 235.5,44.7 235.7,44.7 
			235.9,44.6 236,44.5 236.2,44.4 236.3,44.2 236.5,44.1 236.6,44 236.7,43.8 236.8,43.6 236.9,43.4 236.9,43.2 237,43 237,42.8 
			237.1,42.6 237.1,42.4 237.1,42.2 237.1,42 237.1,41.8 237.1,41.6 237.1,41.4 237,41.2 237,41 236.9,40.9 236.8,40.7 236.7,40.6 
			236.6,40.5 236.5,40.4 236.3,40.4 236.2,40.3 236,40.3 235.8,40.3 235.6,40.4 235.5,40.4 235.3,40.5 235.1,40.6 235,40.7 
			234.8,40.8 234.7,41 234.6,41.2 234.5,41.3 234.4,41.5 234.3,41.7 234.2,41.9 234.2,42.1 234.1,42.3 234.1,42.6 234,42.9 
			234.1,43.3 234.1,43.6 234.2,44 234.4,44.3 234.6,44.5 234.8,44.7 235.1,44.8 235.1,44.8 		"/>
		<polygon fill-rule="evenodd" clip-rule="evenodd" fill="#FFFFFF" points="188.5,44.9 188.2,46.6 186.3,46.6 186.3,46.3 186.4,46 
			186.4,45.8 186.4,45.7 186.3,45.8 186.2,45.9 186.1,46 185.9,46.2 185.7,46.3 185.5,46.4 185.3,46.4 185.1,46.5 184.9,46.6 
			184.7,46.6 184.5,46.7 184.2,46.7 184,46.7 183.8,46.7 183.6,46.7 183.4,46.7 183.1,46.6 182.9,46.5 182.7,46.4 182.5,46.3 
			182.3,46.2 182.1,46.1 182,45.9 181.9,45.8 181.8,45.6 181.8,45.4 181.7,45.3 181.6,45.1 181.6,44.9 181.6,44.8 181.6,44.6 
			181.6,44.4 181.6,44.1 181.6,43.9 181.7,43.6 181.8,43.3 181.9,43.1 182.1,42.9 182.2,42.7 182.4,42.5 182.6,42.3 182.8,42.1 
			183,42 183.3,41.9 183.5,41.8 183.8,41.7 184,41.6 184.3,41.6 184.3,41.6 184.3,41.6 184.4,41.5 184.5,41.5 184.6,41.5 
			184.7,41.5 184.8,41.5 184.9,41.5 185,41.5 185.2,41.5 185.3,41.4 185.4,41.4 185.6,41.4 185.7,41.4 185.8,41.4 185.9,41.4 
			186,41.4 186.2,41.4 186.4,41.4 186.5,41.4 186.7,41.4 186.8,41.4 186.9,41.4 186.9,41.4 186.9,41.4 186.9,41.3 187,41.1 187,41 
			187,40.8 186.9,40.6 186.8,40.5 186.7,40.4 186.5,40.3 186.4,40.2 186.2,40.2 186,40.2 185.8,40.2 185.6,40.1 185.3,40.1 
			185.1,40.2 184.8,40.2 184.6,40.2 184.4,40.2 184.1,40.2 183.9,40.3 183.7,40.3 183.5,40.3 183.3,40.4 183.1,40.4 183,40.5 
			182.9,40.5 182.8,40.6 183.3,38.7 183.5,38.7 183.7,38.6 183.9,38.6 184,38.5 184.2,38.5 184.4,38.5 184.6,38.4 184.8,38.4 
			185,38.4 185.2,38.4 185.5,38.4 185.7,38.4 186,38.4 186.2,38.4 186.5,38.4 186.7,38.4 186.9,38.4 187.2,38.4 187.4,38.5 
			187.7,38.6 187.9,38.7 188.1,38.8 188.3,38.9 188.6,39 188.7,39.2 188.9,39.4 189.1,39.6 189.2,39.8 189.3,40.1 189.3,40.3 
			189.3,40.6 189.3,40.9 188.5,44.9 188.5,44.9 		"/>
		<polyline fill="none" stroke="#FFFFFF" stroke-width="0.216" stroke-miterlimit="2.6131" points="188.5,44.9 188.2,46.6 
			186.3,46.6 186.3,46.6 186.3,46.3 186.4,46 186.4,45.8 186.4,45.7 186.4,45.7 186.3,45.8 186.2,45.9 186.1,46 185.9,46.2 
			185.7,46.3 185.5,46.4 185.3,46.4 185.1,46.5 184.9,46.6 184.7,46.6 184.5,46.7 184.2,46.7 184,46.7 183.8,46.7 183.6,46.7 
			183.4,46.7 183.4,46.7 183.1,46.6 182.9,46.5 182.7,46.4 182.5,46.3 182.3,46.2 182.1,46.1 182,45.9 181.9,45.8 181.8,45.6 
			181.8,45.4 181.7,45.3 181.6,45.1 181.6,44.9 181.6,44.8 181.6,44.6 181.6,44.4 181.6,44.4 181.6,44.1 181.6,43.9 181.7,43.6 
			181.8,43.3 181.9,43.1 182.1,42.9 182.2,42.7 182.4,42.5 182.6,42.3 182.8,42.1 183,42 183.3,41.9 183.5,41.8 183.8,41.7 
			184,41.6 184.3,41.6 184.3,41.6 184.3,41.6 184.3,41.6 184.4,41.5 184.5,41.5 184.6,41.5 184.7,41.5 184.8,41.5 184.9,41.5 
			185,41.5 185.2,41.5 185.3,41.4 185.4,41.4 185.6,41.4 185.7,41.4 185.8,41.4 185.9,41.4 185.9,41.4 186,41.4 186.2,41.4 
			186.4,41.4 186.5,41.4 186.7,41.4 186.8,41.4 186.9,41.4 186.9,41.4 186.9,41.4 186.9,41.4 186.9,41.3 187,41.1 187,41 187,41 
			187,40.8 186.9,40.6 186.8,40.5 186.7,40.4 186.5,40.3 186.4,40.2 186.2,40.2 186,40.2 186,40.2 185.8,40.2 185.6,40.1 
			185.3,40.1 185.1,40.2 184.8,40.2 184.6,40.2 184.4,40.2 184.1,40.2 183.9,40.3 183.7,40.3 183.5,40.3 183.3,40.4 183.1,40.4 
			183,40.5 182.9,40.5 182.8,40.6 183.3,38.7 183.3,38.7 183.5,38.7 183.7,38.6 183.9,38.6 184,38.5 184.2,38.5 184.4,38.5 
			184.6,38.4 184.8,38.4 185,38.4 185.2,38.4 185.5,38.4 185.7,38.4 186,38.4 186.2,38.4 186.5,38.4 186.7,38.4 186.7,38.4 
			186.9,38.4 187.2,38.4 187.4,38.5 187.7,38.6 187.9,38.7 188.1,38.8 188.3,38.9 188.6,39 188.7,39.2 188.9,39.4 189.1,39.6 
			189.2,39.8 189.3,40.1 189.3,40.3 189.3,40.6 189.3,40.9 188.5,44.9 		"/>
		<polygon fill-rule="evenodd" clip-rule="evenodd" fill="#EC1C2E" points="186.7,42.9 186.7,42.9 186.6,42.9 186.6,42.8 
			186.5,42.8 186.4,42.8 186.3,42.8 186.2,42.8 186.1,42.8 186,42.8 185.8,42.8 185.7,42.8 185.6,42.9 185.5,42.9 185.4,42.9 
			185.3,42.9 185.2,42.9 185.2,43 185.1,43 185,43 184.9,43 184.8,43.1 184.7,43.1 184.6,43.2 184.5,43.3 184.4,43.3 184.3,43.4 
			184.2,43.5 184.1,43.6 184.1,43.7 184,43.8 184,43.9 183.9,44 183.9,44.3 184,44.5 184,44.7 184.1,44.8 184.3,44.8 184.4,44.9 
			184.5,44.9 184.6,44.9 184.9,44.9 185.1,44.9 185.3,44.9 185.4,44.8 185.6,44.8 185.7,44.7 185.9,44.6 186,44.5 186.1,44.5 
			186.2,44.4 186.2,44.3 186.3,44.2 186.4,44.1 186.4,44 186.4,43.9 186.5,43.9 186.5,43.6 186.6,43.4 186.6,43.1 186.7,42.9 
			186.7,42.9 		"/>
		<polygon fill-rule="evenodd" clip-rule="evenodd" fill="#FFFFFF" points="172.5,46.6 170.5,46.6 172.2,36.6 175.8,36.6 
			176.1,42.6 178.6,36.6 182.3,36.6 180.6,46.6 178.5,46.6 179.8,39.2 179.7,39.2 176.6,46.6 174.3,46.6 174.3,46.3 174.3,45.5 
			174.2,44.3 174.1,42.9 174,41.6 174,40.4 173.9,39.5 173.9,39.2 173.9,39.2 173.8,39.2 173.8,39.2 173.8,39.2 172.5,46.6 
			172.5,46.6 		"/>
		<polyline fill="none" stroke="#FFFFFF" stroke-width="0.216" stroke-miterlimit="2.6131" points="172.5,46.6 170.5,46.6 
			172.2,36.6 175.8,36.6 176.1,42.6 178.6,36.6 182.3,36.6 180.6,46.6 178.5,46.6 179.8,39.2 179.7,39.2 176.6,46.6 174.3,46.6 
			174.3,46.6 174.3,46.3 174.3,45.5 174.2,44.3 174.1,42.9 174,41.6 174,40.4 173.9,39.5 173.9,39.2 173.9,39.2 173.9,39.2 
			173.8,39.2 173.8,39.2 173.8,39.2 172.5,46.6 		"/>
		<polygon fill-rule="evenodd" clip-rule="evenodd" fill="#FFFFFF" points="226.2,44.9 225.9,46.6 223.9,46.6 224,46.3 224,46 
			224,45.8 224,45.7 223.9,45.8 223.8,46 223.6,46.1 223.5,46.2 223.3,46.3 223.1,46.4 223,46.5 222.8,46.5 222.6,46.6 222.3,46.6 
			222.1,46.7 221.9,46.7 221.7,46.7 221.5,46.7 221.3,46.7 221.1,46.7 220.8,46.6 220.6,46.5 220.3,46.4 220.2,46.3 220,46.2 
			219.8,46.1 219.7,45.9 219.6,45.8 219.5,45.6 219.5,45.4 219.4,45.3 219.4,45.1 219.3,44.9 219.3,44.8 219.3,44.6 219.3,44.4 
			219.3,44.1 219.3,43.9 219.4,43.6 219.5,43.3 219.6,43.1 219.8,42.9 219.9,42.7 220.1,42.5 220.3,42.3 220.5,42.1 220.7,42 
			221,41.9 221.2,41.8 221.4,41.7 221.7,41.6 222,41.6 222,41.6 222,41.6 222.1,41.5 222.1,41.5 222.2,41.5 222.3,41.5 222.5,41.5 
			222.6,41.5 222.7,41.5 222.8,41.5 223,41.4 223.1,41.4 223.2,41.4 223.3,41.4 223.4,41.4 223.5,41.4 223.7,41.4 223.9,41.4 
			224.1,41.4 224.2,41.4 224.4,41.4 224.5,41.4 224.6,41.4 224.6,41.4 224.6,41.4 224.6,41.3 224.7,41.1 224.7,41 224.6,40.8 
			224.6,40.6 224.5,40.5 224.4,40.4 224.2,40.3 224.1,40.2 223.9,40.2 223.7,40.2 223.5,40.2 223.3,40.1 223,40.1 222.8,40.2 
			222.5,40.2 222.3,40.2 222.1,40.2 221.8,40.2 221.6,40.3 221.4,40.3 221.2,40.3 221,40.4 220.8,40.4 220.7,40.5 220.6,40.5 
			220.5,40.6 221,38.7 221.2,38.7 221.4,38.6 221.6,38.6 221.7,38.5 221.9,38.5 222.1,38.5 222.3,38.4 222.5,38.4 222.7,38.4 
			223,38.4 223.2,38.4 223.4,38.4 223.6,38.4 223.9,38.4 224.1,38.4 224.4,38.4 224.6,38.4 224.8,38.4 225.1,38.5 225.3,38.6 
			225.6,38.7 225.8,38.8 226,38.9 226.2,39 226.4,39.2 226.6,39.4 226.7,39.6 226.9,39.8 226.9,40.1 227,40.3 227,40.6 227,40.9 
			226.2,44.9 226.2,44.9 		"/>
		<polygon fill-rule="evenodd" clip-rule="evenodd" fill="#FFFFFF" points="225.9,46.7 225.9,46.6 226.2,44.9 226.1,44.9 
			225.8,46.6 225.9,46.6 225.9,46.7 225.9,46.7 225.9,46.6 225.9,46.7 225.9,46.7 		"/>
		<polygon fill-rule="evenodd" clip-rule="evenodd" fill="#FFFFFF" points="223.9,46.6 223.9,46.7 225.9,46.7 225.9,46.6 
			223.9,46.6 224,46.6 223.9,46.6 223.9,46.7 223.9,46.7 223.9,46.6 223.9,46.6 		"/>
		<polygon fill-rule="evenodd" clip-rule="evenodd" fill="#FFFFFF" points="224,45.8 224,45.7 223.9,45.8 223.9,46 223.9,46.3 
			223.9,46.6 224,46.6 224,46.3 224,46 224,45.8 224,45.8 223.9,45.7 224,45.8 224,45.8 		"/>
		<polygon fill-rule="evenodd" clip-rule="evenodd" fill="#FFFFFF" points="221.1,46.7 221.1,46.7 221.3,46.8 221.5,46.8 
			221.7,46.8 221.9,46.8 222.1,46.7 222.4,46.7 222.6,46.6 222.8,46.6 223,46.5 223.2,46.4 223.3,46.3 223.5,46.2 223.7,46.1 
			223.8,46 223.9,45.9 224,45.8 223.9,45.7 223.8,45.8 223.7,45.9 223.6,46 223.5,46.1 223.3,46.2 223.1,46.3 222.9,46.4 
			222.7,46.5 222.5,46.5 222.3,46.6 222.1,46.6 221.9,46.7 221.7,46.7 221.5,46.7 221.3,46.7 221.1,46.6 221.1,46.6 221.1,46.7 
			221.1,46.7 		"/>
		<polygon fill-rule="evenodd" clip-rule="evenodd" fill="#FFFFFF" points="219.2,44.4 219.2,44.4 219.2,44.6 219.3,44.8 
			219.3,44.9 219.3,45.1 219.3,45.3 219.4,45.5 219.5,45.6 219.6,45.8 219.7,46 219.8,46.1 220,46.2 220.1,46.4 220.3,46.5 
			220.5,46.6 220.8,46.7 221.1,46.7 221.1,46.6 220.8,46.6 220.6,46.5 220.4,46.4 220.2,46.3 220,46.2 219.9,46 219.8,45.9 
			219.7,45.8 219.6,45.6 219.5,45.4 219.4,45.3 219.4,45.1 219.4,44.9 219.3,44.8 219.3,44.6 219.3,44.4 219.3,44.4 219.2,44.4 
			219.2,44.4 		"/>
		<polygon fill-rule="evenodd" clip-rule="evenodd" fill="#FFFFFF" points="222,41.5 222,41.5 221.7,41.6 221.4,41.6 221.2,41.7 
			220.9,41.8 220.7,41.9 220.5,42.1 220.3,42.3 220.1,42.4 219.9,42.6 219.7,42.8 219.6,43.1 219.5,43.3 219.4,43.6 219.3,43.8 
			219.3,44.1 219.2,44.4 219.3,44.4 219.3,44.1 219.4,43.9 219.5,43.6 219.6,43.3 219.7,43.1 219.8,42.9 220,42.7 220.1,42.5 
			220.3,42.3 220.5,42.2 220.8,42 221,41.9 221.2,41.8 221.5,41.7 221.7,41.7 222,41.6 222,41.6 222,41.5 222,41.5 		"/>
		<polygon fill-rule="evenodd" clip-rule="evenodd" fill="#FFFFFF" points="223.5,41.4 223.5,41.4 223.4,41.4 223.3,41.4 
			223.2,41.4 223.1,41.4 223,41.4 222.8,41.4 222.7,41.4 222.6,41.4 222.5,41.5 222.3,41.5 222.2,41.5 222.1,41.5 222.1,41.5 
			222,41.5 222,41.5 222,41.5 222,41.6 222,41.6 222,41.6 222.1,41.6 222.1,41.6 222.2,41.6 222.3,41.6 222.5,41.5 222.6,41.5 
			222.7,41.5 222.8,41.5 223,41.5 223.1,41.5 223.2,41.5 223.3,41.5 223.4,41.5 223.5,41.5 223.5,41.5 223.5,41.4 223.5,41.4 		"/>
		<polygon fill-rule="evenodd" clip-rule="evenodd" fill="#FFFFFF" points="224.5,41.4 224.6,41.4 224.6,41.4 224.5,41.4 
			224.4,41.4 224.2,41.4 224.1,41.4 223.9,41.4 223.7,41.4 223.5,41.4 223.5,41.5 223.7,41.5 223.9,41.5 224.1,41.5 224.2,41.5 
			224.4,41.5 224.5,41.5 224.6,41.5 224.6,41.5 224.6,41.5 224.6,41.5 224.6,41.5 224.6,41.5 224.5,41.4 224.5,41.4 		"/>
		<polygon fill-rule="evenodd" clip-rule="evenodd" fill="#FFFFFF" points="224.6,41 224.6,41 224.6,41.1 224.6,41.3 224.6,41.4 
			224.5,41.4 224.6,41.5 224.7,41.4 224.7,41.3 224.7,41.1 224.7,41 224.7,41 224.6,41 224.6,41 		"/>
		<polygon fill-rule="evenodd" clip-rule="evenodd" fill="#FFFFFF" points="223.7,40.2 223.7,40.2 223.9,40.2 224.1,40.3 
			224.2,40.3 224.3,40.4 224.4,40.5 224.5,40.7 224.6,40.8 224.6,41 224.7,41 224.7,40.8 224.6,40.6 224.5,40.5 224.4,40.3 
			224.3,40.2 224.1,40.2 223.9,40.1 223.7,40.1 223.7,40.1 223.7,40.2 223.7,40.2 		"/>
		<polygon fill-rule="evenodd" clip-rule="evenodd" fill="#FFFFFF" points="220.5,40.6 220.5,40.6 220.6,40.6 220.7,40.5 
			220.8,40.5 221,40.4 221.2,40.4 221.4,40.4 221.6,40.3 221.8,40.3 222.1,40.3 222.3,40.2 222.5,40.2 222.8,40.2 223,40.2 
			223.3,40.2 223.5,40.2 223.7,40.2 223.7,40.1 223.5,40.1 223.3,40.1 223,40.1 222.8,40.1 222.5,40.1 222.3,40.1 222.1,40.2 
			221.8,40.2 221.6,40.2 221.4,40.3 221.2,40.3 221,40.3 220.8,40.4 220.7,40.4 220.6,40.5 220.5,40.5 220.6,40.6 220.5,40.6 
			220.5,40.6 		"/>
		<polygon fill-rule="evenodd" clip-rule="evenodd" fill="#FFFFFF" points="221,38.7 221,38.7 220.5,40.6 220.6,40.6 221.1,38.8 
			221.1,38.8 221,38.7 221,38.7 221,38.7 221,38.7 221,38.7 		"/>
		<polygon fill-rule="evenodd" clip-rule="evenodd" fill="#FFFFFF" points="224.4,38.4 224.4,38.4 224.1,38.3 223.9,38.3 
			223.6,38.3 223.4,38.3 223.2,38.3 223,38.3 222.7,38.4 222.5,38.4 222.3,38.4 222.1,38.4 221.9,38.4 221.7,38.5 221.5,38.5 
			221.4,38.6 221.2,38.6 221,38.7 221.1,38.8 221.2,38.7 221.4,38.7 221.6,38.6 221.7,38.6 221.9,38.5 222.1,38.5 222.3,38.5 
			222.5,38.5 222.7,38.4 223,38.4 223.2,38.4 223.4,38.4 223.6,38.4 223.9,38.4 224.1,38.4 224.4,38.4 224.4,38.4 224.4,38.4 
			224.4,38.4 		"/>
		<polygon fill-rule="evenodd" clip-rule="evenodd" fill="#FFFFFF" points="227,40.9 227,40.9 227,40.6 227,40.3 227,40.1 
			226.9,39.8 226.8,39.6 226.6,39.4 226.5,39.2 226.3,39 226,38.9 225.8,38.7 225.6,38.6 225.3,38.5 225.1,38.5 224.8,38.4 
			224.6,38.4 224.4,38.4 224.4,38.4 224.6,38.5 224.8,38.5 225.1,38.5 225.3,38.6 225.5,38.7 225.8,38.8 226,38.9 226.2,39.1 
			226.4,39.2 226.6,39.4 226.7,39.6 226.8,39.8 226.9,40.1 227,40.3 227,40.6 226.9,40.9 226.9,40.9 227,40.9 227,40.9 		"/>
		<polygon fill-rule="evenodd" clip-rule="evenodd" fill="#FFFFFF" points="226.2,44.9 226.2,44.9 227,40.9 226.9,40.9 226.1,44.9 
			226.1,44.9 226.2,44.9 226.2,44.9 		"/>
		<polygon fill-rule="evenodd" clip-rule="evenodd" fill="#FBB231" points="224.3,42.9 224.3,42.9 224.3,42.9 224.2,42.8 
			224.2,42.8 224.1,42.8 224,42.8 223.9,42.8 223.7,42.8 223.6,42.8 223.5,42.8 223.4,42.9 223.3,42.9 223.2,42.9 223.1,42.9 
			223,42.9 222.9,42.9 222.8,43 222.8,43 222.7,43 222.6,43 222.5,43.1 222.4,43.1 222.3,43.2 222.2,43.2 222.1,43.3 222,43.4 
			221.9,43.5 221.8,43.6 221.8,43.7 221.7,43.8 221.7,43.9 221.7,44 221.6,44.3 221.7,44.5 221.7,44.7 221.8,44.8 221.9,44.8 
			222.1,44.9 222.2,44.9 222.3,44.9 222.6,44.9 222.8,44.9 223,44.9 223.2,44.8 223.3,44.7 223.5,44.7 223.6,44.6 223.7,44.5 
			223.8,44.4 223.9,44.3 224,44.2 224.1,44.1 224.1,44 224.2,44 224.2,43.9 224.2,43.8 224.2,43.6 224.3,43.3 224.3,43.1 
			224.3,42.9 224.3,42.9 		"/>
		<polygon fill-rule="evenodd" clip-rule="evenodd" fill="#FFFFFF" points="240,45.6 240,45.4 240,45.2 240.1,45 240.3,44.8 
			240.4,44.7 240.6,44.6 240.8,44.6 241,44.5 241.2,44.6 241.4,44.6 241.6,44.7 241.8,44.8 241.9,45 242,45.2 242.1,45.4 
			242.1,45.6 241.9,45.6 241.9,45.4 241.8,45.3 241.7,45.1 241.6,45 241.5,44.9 241.4,44.8 241.2,44.8 241,44.7 240.9,44.8 
			240.7,44.8 240.5,44.9 240.4,45 240.3,45.1 240.2,45.3 240.2,45.4 240.2,45.6 240,45.6 240,45.6 		"/>
		<polygon fill-rule="evenodd" clip-rule="evenodd" fill="#FFFFFF" points="240.6,45.6 240.6,45.1 241.1,45.1 241.2,45.1 
			241.2,45.1 241.3,45.2 241.4,45.2 241.4,45.2 241.4,45.3 241.4,45.3 241.4,45.4 241.4,45.5 241.4,45.5 241.4,45.6 241.4,45.6 
			241.1,45.6 241.1,45.6 241.1,45.6 241.2,45.5 241.2,45.5 241.3,45.5 241.3,45.5 241.3,45.4 241.3,45.4 241.3,45.3 241.3,45.3 
			241.2,45.3 241.2,45.3 241.2,45.3 241.1,45.3 241.1,45.3 241.1,45.3 240.8,45.3 240.8,45.6 240.6,45.6 240.6,45.6 		"/>
		<polygon fill-rule="evenodd" clip-rule="evenodd" fill="#FFFFFF" points="240,45.6 240,45.6 240,45.8 240,46 240.1,46.2 
			240.3,46.4 240.4,46.5 240.6,46.6 240.8,46.7 241,46.7 241.2,46.7 241.4,46.6 241.6,46.5 241.8,46.4 241.9,46.2 242,46 
			242.1,45.8 242.1,45.6 242.1,45.6 241.9,45.6 241.9,45.6 241.9,45.8 241.8,46 241.7,46.1 241.6,46.2 241.5,46.3 241.4,46.4 
			241.2,46.5 241,46.5 240.9,46.5 240.7,46.4 240.5,46.3 240.4,46.2 240.3,46.1 240.2,46 240.2,45.8 240.2,45.6 240.2,45.6 
			240,45.6 240,45.6 		"/>
		<polygon fill-rule="evenodd" clip-rule="evenodd" fill="#FFFFFF" points="240.6,45.6 240.6,46 240.8,46 240.8,45.7 241,45.7 
			241.3,46 241.4,46 241.2,45.7 241.2,45.7 241.3,45.6 241.3,45.6 241.4,45.6 241.4,45.6 241.1,45.6 241,45.6 240.8,45.6 
			240.8,45.6 240.6,45.6 240.6,45.6 		"/>
		<path fill="none" stroke="#FFFFFF" stroke-width="0.216" stroke-miterlimit="2.6131" d="M240,45.6L240,45.6l0-0.2l0.1-0.2l0.1-0.2
			l0.1-0.2l0.2-0.1l0.2-0.1l0.2-0.1l0.2,0l0,0l0.2,0l0.2,0.1l0.2,0.1l0.2,0.1l0.1,0.2l0.1,0.2l0.1,0.2l0,0.2l0,0l0,0.2L242,46
			l-0.1,0.2l-0.1,0.2l-0.2,0.1l-0.2,0.1l-0.2,0.1l-0.2,0l0,0l-0.2,0l-0.2-0.1l-0.2-0.1l-0.2-0.1l-0.1-0.2L240,46l-0.1-0.2L240,45.6
			 M240.8,46h-0.2v-0.9h0.4l0,0l0.1,0l0.1,0l0.1,0l0.1,0l0,0l0,0l0,0.1l0,0.1l0,0l0,0.1l0,0.1l0,0l0,0l0,0l0,0l-0.1,0h-0.1l0.2,0.4
			h-0.2l-0.2-0.4h-0.2V46 M241,45.6L241,45.6L241,45.6l0.1,0l0,0l0,0l0,0l0,0l0,0v-0.1l0,0l0,0l0,0l0,0l0,0l0,0l0,0h0h0h-0.2v0.3
			H241 M241,46.5L241,46.5l0.2,0l0.2-0.1l0.1-0.1l0.1-0.1l0.1-0.1l0.1-0.1l0-0.2l0-0.2l0,0l0-0.2l0-0.2l-0.1-0.2l-0.1-0.1l-0.1-0.1
			l-0.1-0.1l-0.2-0.1l-0.2,0l0,0l-0.2,0l-0.2,0.1l-0.1,0.1l-0.1,0.1l-0.1,0.1l-0.1,0.2l0,0.2l0,0.2l0,0l0,0.2l0,0.2l0.1,0.1l0.1,0.1
			l0.1,0.1l0.1,0.1l0.2,0.1L241,46.5"/>
		<polygon fill-rule="evenodd" clip-rule="evenodd" fill="#FFFFFF" points="226.7,46.6 228.9,46.6 228.9,46.6 229.6,42.3 
			229.7,42.1 229.7,42 229.8,41.8 229.8,41.6 229.9,41.5 230,41.3 230.1,41.1 230.2,41 230.3,40.9 230.5,40.7 230.7,40.6 
			230.9,40.5 231.1,40.5 231.3,40.4 231.6,40.4 231.9,40.3 232,40.3 232.1,40.3 232.1,40.3 232.1,40.3 232.4,38.4 232.2,38.4 
			232,38.4 231.8,38.5 231.6,38.5 231.5,38.6 231.3,38.7 231.2,38.7 231,38.8 230.9,38.9 230.7,39 230.6,39.2 230.5,39.3 
			230.4,39.4 230.3,39.6 230.2,39.7 230.1,39.9 230.3,38.5 228.2,38.5 226.7,46.6 226.7,46.6 226.7,46.6 		"/>
		<polyline fill="none" stroke="#FFFFFF" stroke-width="0.216" stroke-miterlimit="2.6131" points="226.7,46.6 228.9,46.6 
			228.9,46.6 229.6,42.3 229.6,42.3 229.7,42.1 229.7,42 229.8,41.8 229.8,41.6 229.9,41.5 230,41.3 230.1,41.1 230.2,41 
			230.3,40.9 230.5,40.7 230.7,40.6 230.9,40.5 231.1,40.5 231.3,40.4 231.6,40.4 231.9,40.3 231.9,40.3 232,40.3 232.1,40.3 
			232.1,40.3 232.1,40.3 232.4,38.4 232.4,38.4 232.2,38.4 232,38.4 231.8,38.5 231.6,38.5 231.5,38.6 231.3,38.7 231.2,38.7 
			231,38.8 230.9,38.9 230.7,39 230.6,39.2 230.5,39.3 230.4,39.4 230.3,39.6 230.2,39.7 230.1,39.9 230.3,38.5 228.2,38.5 
			226.7,46.6 226.7,46.6 		"/>
		<polygon fill-rule="evenodd" clip-rule="evenodd" fill="#FFFFFF" points="206.6,46.6 208.8,46.6 208.8,46.6 209.5,42.3 
			209.6,42.1 209.6,42 209.6,41.8 209.7,41.7 209.8,41.5 209.8,41.4 209.9,41.2 210,41.1 210.2,41 210.3,40.9 210.5,40.8 
			210.6,40.7 210.9,40.6 211.1,40.6 211.3,40.5 211.6,40.5 211.7,40.5 211.7,40.5 211.7,40.5 211.8,40.5 211.8,40.5 211.8,40.5 
			211.9,40.5 211.9,40.5 211.9,40.5 211.9,40.4 211.9,40.3 212,40.1 212,39.9 212.1,39.7 212.1,39.5 212.2,39.3 212.3,39.1 
			212.3,39 212.4,38.8 212.5,38.7 212.6,38.6 212.6,38.5 212.7,38.5 212.7,38.4 212.7,38.4 212.6,38.4 212.6,38.4 212.5,38.4 
			212.5,38.4 212.4,38.4 212.4,38.4 212.3,38.4 212.1,38.4 211.9,38.4 211.7,38.5 211.5,38.5 211.3,38.6 211.2,38.7 211,38.7 
			210.9,38.8 210.8,38.9 210.6,39 210.5,39.1 210.4,39.3 210.3,39.4 210.2,39.6 210.1,39.7 210,39.9 210.2,38.5 208.1,38.5 
			206.6,46.6 206.6,46.6 206.6,46.6 		"/>
		<polyline fill="none" stroke="#FFFFFF" stroke-width="0.216" stroke-miterlimit="2.6131" points="206.6,46.6 208.8,46.6 
			208.8,46.6 209.5,42.3 209.5,42.3 209.6,42.1 209.6,42 209.6,41.8 209.7,41.7 209.8,41.5 209.8,41.4 209.9,41.2 210,41.1 
			210.2,41 210.3,40.9 210.5,40.8 210.6,40.7 210.9,40.6 211.1,40.6 211.3,40.5 211.6,40.5 211.6,40.5 211.7,40.5 211.7,40.5 
			211.7,40.5 211.8,40.5 211.8,40.5 211.8,40.5 211.9,40.5 211.9,40.5 211.9,40.5 211.9,40.5 211.9,40.4 211.9,40.3 212,40.1 
			212,39.9 212.1,39.7 212.1,39.5 212.2,39.3 212.2,39.3 212.3,39.1 212.3,39 212.4,38.8 212.5,38.7 212.6,38.6 212.6,38.5 
			212.7,38.5 212.7,38.4 212.7,38.4 212.7,38.4 212.6,38.4 212.6,38.4 212.5,38.4 212.5,38.4 212.4,38.4 212.4,38.4 212.3,38.4 
			212.3,38.4 212.1,38.4 211.9,38.4 211.7,38.5 211.5,38.5 211.3,38.6 211.2,38.7 211,38.7 210.9,38.8 210.8,38.9 210.6,39 
			210.5,39.1 210.4,39.3 210.3,39.4 210.2,39.6 210.1,39.7 210,39.9 210.2,38.5 208.1,38.5 206.6,46.6 206.6,46.6 		"/>
		<polygon fill-rule="evenodd" clip-rule="evenodd" fill="#FBB231" points="240,54.6 240,54.6 240,54.4 240.1,54.2 240.3,54 
			240.4,53.9 240.6,53.8 240.8,53.8 241,53.8 241.2,53.8 241.4,53.8 241.6,53.9 241.8,54 241.9,54.2 242,54.4 242.1,54.6 
			242.1,54.6 241.9,54.6 241.8,54.4 241.7,54.3 241.6,54.2 241.5,54.1 241.4,54 241.2,53.9 241,53.9 240.9,53.9 240.7,54 
			240.5,54.1 240.4,54.2 240.3,54.3 240.2,54.4 240.2,54.6 240,54.6 240,54.6 		"/>
		<polygon fill-rule="evenodd" clip-rule="evenodd" fill="#FBB231" points="240.6,54.6 240.6,54.3 241.1,54.3 241.2,54.3 
			241.2,54.3 241.3,54.4 241.4,54.4 241.4,54.4 241.4,54.5 241.4,54.5 241.4,54.6 241.3,54.6 241.3,54.6 241.3,54.5 241.3,54.5 
			241.2,54.5 241.2,54.5 241.2,54.5 241.1,54.4 241.1,54.4 241.1,54.4 240.8,54.4 240.8,54.6 240.6,54.6 240.6,54.6 		"/>
		<polygon fill-rule="evenodd" clip-rule="evenodd" fill="#FBB231" points="240,54.8 240,54.6 240.2,54.6 240.2,54.6 240.2,54.8 
			240,54.8 240,54.8 		"/>
		<polygon fill-rule="evenodd" clip-rule="evenodd" fill="#FBB231" points="240.6,54.8 240.6,54.6 240.8,54.6 240.8,54.7 241,54.7 
			241.1,54.7 241.1,54.7 241.2,54.7 241.2,54.7 241.3,54.7 241.3,54.6 241.3,54.6 241.3,54.6 241.4,54.6 241.4,54.6 241.4,54.6 
			241.4,54.7 241.4,54.7 241.4,54.8 240.6,54.8 240.6,54.8 		"/>
		<polygon fill-rule="evenodd" clip-rule="evenodd" fill="#FBB231" points="241.9,54.8 241.9,54.6 241.9,54.6 242.1,54.6 
			242.1,54.8 241.9,54.8 241.9,54.8 		"/>
		<polygon fill-rule="evenodd" clip-rule="evenodd" fill="#FBB231" points="240,54.8 240,54.8 240,55 240,55.2 240.1,55.4 
			240.3,55.6 240.4,55.7 240.6,55.8 240.8,55.8 241,55.9 241.2,55.8 241.4,55.8 241.6,55.7 241.8,55.6 241.9,55.4 242,55.2 
			242.1,55 242.1,54.8 242.1,54.8 241.9,54.8 241.9,54.8 241.9,55 241.8,55.1 241.7,55.3 241.6,55.4 241.5,55.5 241.4,55.6 
			241.2,55.7 241,55.7 240.9,55.7 240.7,55.6 240.5,55.5 240.4,55.4 240.3,55.3 240.2,55.1 240.2,55 240.2,54.8 240.2,54.8 
			240,54.8 240,54.8 		"/>
		<polygon fill-rule="evenodd" clip-rule="evenodd" fill="#FBB231" points="240.6,54.8 240.6,55.2 240.8,55.2 240.8,54.8 241,54.8 
			241.3,55.2 241.4,55.2 241.2,54.8 241.2,54.8 241.3,54.8 241.3,54.8 241.4,54.8 241.4,54.8 240.6,54.8 240.6,54.8 		"/>
		<path fill-rule="evenodd" clip-rule="evenodd" fill="#FFFFFF" d="M206.9,40.9l-0.1-0.5l-0.1-0.4l-0.2-0.3l-0.2-0.3l-0.2-0.3
			l-0.3-0.2l-0.3-0.2l-0.3-0.1l-0.3-0.1l-0.3-0.1l-0.3-0.1l-0.3,0l-0.3,0l-0.6,0l-0.5,0.1l-0.5,0.1l-0.4,0.2l-0.4,0.2l-0.3,0.3
			l-0.3,0.3l-0.2,0.3l-0.2,0.3l-0.2,0.3l-0.1,0.3l-0.1,0.3l-0.1,0.3l-0.1,0.3l0,0.3l0,0.2l0,0.6l0,0.6l0.1,0.5l0.1,0.4l0.2,0.4
			l0.2,0.3l0.3,0.3l0.3,0.3L201,46l0.3,0.2l0.4,0.1l0.4,0.1l0.4,0.1l0.4,0.1l0.4,0l0.4,0h0.3l0.2,0h0.2l0.2,0l0.2,0l0.2,0l0.2,0
			l0.1,0l0.1,0l0.1,0l0.1,0l0.1,0l0.1,0l0.1,0l0.1-0.1l0.1-0.1l0.3-1.9l-0.2,0.1l-0.2,0.1l-0.2,0.1l-0.2,0.1l-0.2,0.1l-0.2,0l-0.2,0
			l-0.2,0l-0.2,0l-0.2,0h-0.2l-0.2,0l-0.2,0l-0.2,0l-0.2,0l-0.2,0l-0.2,0l-0.2-0.1l-0.2-0.1l-0.1-0.1l-0.1-0.1l-0.1-0.1l-0.1-0.1
			l-0.1-0.1L202,44l-0.1-0.1l-0.1-0.1l-0.1-0.1l0-0.1l0-0.1l0-0.1l0-0.1h4.9l0-0.5l0.1-0.6l0.1-0.6L206.9,40.9z M204.8,41.6H202l0,0
			l0,0l0-0.1l0-0.2l0-0.2l0.1-0.2l0.1-0.1l0.1-0.1l0.1-0.1l0.1-0.1l0.1-0.1l0.1-0.1l0.1-0.1l0.1-0.1l0.1-0.1l0.1,0l0.1,0l0.1,0
			l0.1,0l0.1,0l0.1,0l0.1,0l0.1,0l0.1,0.1l0.1,0.1l0.1,0.1l0.1,0.1l0.1,0.1l0.1,0.1l0.1,0.1l0.1,0.1l0,0.2l0,0.2l0,0.2L204.8,41.6z"
			/>
	</g>
</g>
<g>
	<path fill="#084D95" d="M841,75.9c0,2.3-1.9,4.2-4.2,4.2H719.7c-2.3,0-4.2-1.9-4.2-4.2v-70c0-2.3,1.9-4.2,4.2-4.2h117.1
		c2.3,0,4.2,1.9,4.2,4.2V75.9z"/>
	<path fill="#FFFFFF" d="M781.3,44.4c7.1,0,13.6-5.8,13.6-12.9c0-7.7-6.5-13.1-13.6-13.1h-6.1c-7.2,0-13.1,5.3-13.1,13.1
		c0,7.1,5.9,12.9,13.1,12.9H781.3z"/>
	<path fill="#084D95" d="M777.9,38.5v-14c2.8,1.1,4.8,3.8,4.8,7C782.7,34.7,780.7,37.4,777.9,38.5 M767.7,31.4c0-3.2,2-5.9,4.8-7v14
		C769.7,37.4,767.7,34.7,767.7,31.4 M775.2,19.6c-6.6,0-11.9,5.3-11.9,11.9c0,6.6,5.3,11.9,11.9,11.9c6.6,0,11.9-5.3,11.9-11.9
		C787,24.9,781.7,19.6,775.2,19.6"/>
	<g>
		<path fill="#FFFFFF" d="M748.8,53.3c0,1.1,0.8,1.2,1.4,1.2c3,0,3.9-2.2,3.9-4.3c0-2.6-1.6-4.4-4.3-4.4c-0.6,0-0.8,0-1.1,0.1V53.3z
			 M747.5,46.9c0-1.2-0.6-1.2-1.3-1.2v-0.4c0.5,0,1.1,0,1.6,0c0.6,0,1.4,0,2.4,0c3.5,0,5.5,2.4,5.5,4.8c0,1.4-0.8,4.8-5.6,4.8
			c-0.7,0-1.3,0-2,0c-0.6,0-1.2,0-1.8,0v-0.4c0.8-0.1,1.2-0.1,1.3-1V46.9z"/>
		<path fill="#FFFFFF" d="M757.6,46.5c-0.4,0-0.7-0.3-0.7-0.7c0-0.3,0.3-0.7,0.7-0.7c0.4,0,0.7,0.3,0.7,0.7
			C758.3,46.2,758,46.5,757.6,46.5 M756.2,54.5h0.3c0.4,0,0.7,0,0.7-0.5v-3.7c0-0.6-0.2-0.7-0.7-1v-0.2c0.6-0.2,1.4-0.5,1.5-0.5
			c0.1-0.1,0.2-0.1,0.2-0.1c0.1,0,0.1,0.1,0.1,0.2v5.3c0,0.5,0.3,0.5,0.7,0.5h0.2v0.4c-0.5,0-0.9,0-1.4,0c-0.5,0-1,0-1.5,0V54.5z"/>
		<path fill="#FFFFFF" d="M760.4,50.5c0-0.5-0.2-0.6-0.8-0.9v-0.3c0.6-0.2,1.2-0.4,1.8-0.7c0,0,0.1,0,0.1,0.1v0.9
			c0.8-0.6,1.5-1,2.4-1c1.2,0,1.6,0.9,1.6,1.9v3.5c0,0.5,0.3,0.5,0.7,0.5h0.2v0.4c-0.5,0-1,0-1.5,0c-0.5,0-1,0-1.5,0v-0.4h0.2
			c0.4,0,0.7,0,0.7-0.5v-3.5c0-0.8-0.5-1.2-1.3-1.2c-0.4,0-1.1,0.4-1.6,0.7v4.1c0,0.5,0.3,0.5,0.7,0.5h0.2v0.4c-0.5,0-1,0-1.5,0
			c-0.5,0-1,0-1.5,0v-0.4h0.2c0.4,0,0.7,0,0.7-0.5V50.5z"/>
		<path fill="#FFFFFF" d="M769.8,50.7c0.3,0,0.4-0.2,0.4-0.3c0-0.7-0.4-1.3-1.2-1.3c-0.8,0-1.4,0.6-1.6,1.6H769.8z M767.4,51.1
			c0,0.1,0,0.3,0,0.8c0.1,1.3,0.9,2.4,2,2.4c0.8,0,1.3-0.4,1.9-0.9l0.2,0.2c-0.6,0.8-1.4,1.5-2.5,1.5c-2.2,0-2.6-2.1-2.6-3
			c0-2.7,1.8-3.5,2.8-3.5c1.1,0,2.3,0.7,2.3,2.2c0,0.1,0,0.2,0,0.2l-0.1,0.1H767.4z"/>
		<path fill="#FFFFFF" d="M771.7,54.5h0.4c0.4,0,0.7,0,0.7-0.5v-3.9c0-0.4-0.5-0.5-0.7-0.6v-0.2c1-0.4,1.5-0.8,1.7-0.8
			c0.1,0,0.1,0,0.1,0.2V50h0c0.3-0.5,0.9-1.4,1.8-1.4c0.3,0,0.8,0.2,0.8,0.7c0,0.4-0.3,0.7-0.6,0.7c-0.4,0-0.4-0.3-0.9-0.3
			c-0.2,0-1,0.3-1,1.1v3.2c0,0.5,0.3,0.5,0.7,0.5h0.8v0.4c-0.8,0-1.3,0-1.9,0c-0.6,0-1.1,0-1.6,0V54.5z"/>
		<path fill="#FFFFFF" d="M777,53c0.2,0.9,0.7,1.7,1.7,1.7c0.8,0,1.1-0.5,1.1-1c0-1.6-3-1.1-3-3.3c0-0.8,0.6-1.8,2.1-1.8
			c0.4,0,1,0.1,1.6,0.4l0.1,1.4h-0.3c-0.1-0.9-0.6-1.4-1.5-1.4c-0.5,0-1.1,0.3-1.1,0.9c0,1.6,3.2,1.1,3.2,3.3c0,0.9-0.7,1.9-2.4,1.9
			c-0.5,0-1.2-0.2-1.7-0.5l-0.2-1.6L777,53z"/>
		<path fill="#FFFFFF" d="M793.3,47.8H793c-0.3-1.6-1.4-2.2-2.9-2.2c-1.6,0-3.9,1.1-3.9,4.3c0,2.8,2,4.8,4.1,4.8
			c1.4,0,2.5-0.9,2.8-2.4l0.3,0.1l-0.3,2c-0.6,0.4-2.1,0.7-3,0.7c-3.2,0-5.2-2.1-5.2-5.2c0-2.8,2.5-4.8,5.2-4.8
			c1.1,0,2.2,0.4,3.2,0.7L793.3,47.8z"/>
		<path fill="#FFFFFF" d="M793.8,54.5h0.3c0.4,0,0.7,0,0.7-0.5v-7.6c0-0.9-0.2-0.9-0.7-1.1v-0.2c0.6-0.2,1.1-0.4,1.4-0.6
			c0.1-0.1,0.3-0.2,0.3-0.2c0.1,0,0.1,0.1,0.1,0.2v9.5c0,0.5,0.3,0.5,0.7,0.5h0.2v0.4c-0.5,0-0.9,0-1.4,0c-0.5,0-1,0-1.5,0V54.5z"/>
		<path fill="#FFFFFF" d="M802.6,54.1c0,0.2,0.2,0.3,0.4,0.3c0.2,0,0.4,0,0.5,0v0.3c-0.6,0.1-1.7,0.3-2,0.4l-0.1,0V54
			c-0.8,0.7-1.5,1.1-2.4,1.1c-0.7,0-1.5-0.5-1.5-1.6V50c0-0.4-0.1-0.7-0.8-0.8v-0.3c0.5,0,1.6-0.1,1.8-0.1c0.2,0,0.2,0.1,0.2,0.4
			v3.5c0,0.4,0,1.6,1.2,1.6c0.5,0,1.1-0.4,1.7-0.8v-3.7c0-0.3-0.7-0.4-1.2-0.6V49c1.2-0.1,2-0.2,2.1-0.2c0.1,0,0.1,0.1,0.1,0.2V54.1
			z"/>
		<path fill="#FFFFFF" d="M805.3,53.3c0,0.5,0.5,1.4,1.4,1.4c1.5,0,2.1-1.4,2.1-2.7c0-1.5-1.1-2.7-2.2-2.7c-0.5,0-0.9,0.3-1.3,0.6
			V53.3z M805.3,49.6c0.5-0.5,1.3-1,2-1c1.6,0,2.5,1.4,2.5,2.9c0,1.8-1.3,3.6-3.3,3.6c-1,0-1.5-0.3-1.9-0.5l-0.4,0.3l-0.3-0.2
			c0.1-0.8,0.2-1.6,0.2-2.4v-5.9c0-0.9-0.2-0.9-0.7-1.1v-0.2c0.5-0.2,1.1-0.4,1.4-0.6c0.2-0.1,0.3-0.1,0.3-0.1
			c0.1,0,0.1,0.1,0.1,0.2V49.6z"/>
		<path fill="#FFFFFF" d="M746.2,62.9h0.1c0.3,0,0.6,0,0.6-0.4v-3.9c0-0.4-0.3-0.4-0.6-0.4h-0.1v-0.2c0.3,0,0.7,0,1.1,0
			c0.4,0,0.8,0,1.2,0v0.2h-0.1c-0.3,0-0.6,0-0.6,0.4v3.9c0,0.4,0.3,0.4,0.6,0.4h0.1v0.2c-0.4,0-0.8,0-1.2,0c-0.4,0-0.8,0-1.1,0V62.9
			z"/>
		<path fill="#FFFFFF" d="M748.4,63.1v-0.2h-0.1c-0.3,0-0.6,0-0.6-0.5v-3.9c0-0.4,0.3-0.5,0.6-0.5h0.1v-0.2c-0.3,0-0.8,0-1.1,0
			c-0.4,0-0.8,0-1.1,0v0.2h0.1c0.3,0,0.6,0,0.6,0.5v3.9c0,0.4-0.3,0.5-0.6,0.5h-0.1v0.2c0.3,0,0.7,0,1.1,0
			C747.7,63,748.1,63.1,748.4,63.1 M748.5,63.1c-0.4,0-0.8,0-1.2,0c-0.4,0-0.8,0-1.1,0h0v0v-0.2v0h0h0.1c0.3,0,0.5,0,0.5-0.4v-3.9
			c0-0.4-0.2-0.4-0.5-0.4h-0.1v0v-0.3h0c0.3,0,0.7,0,1.1,0c0.4,0,0.8,0,1.2,0h0v0v0.3h0h-0.1c-0.3,0-0.5,0-0.5,0.4v3.9
			c0,0.4,0.3,0.4,0.5,0.4h0.1v0L748.5,63.1L748.5,63.1z"/>
		<path fill="#FFFFFF" d="M753.6,61.6L753.6,61.6l0-2.8c0-0.6-0.4-0.7-0.6-0.7h-0.2v-0.2c0.3,0,0.7,0,1,0c0.3,0,0.6,0,0.9,0v0.2
			h-0.1c-0.3,0-0.7,0.1-0.7,0.9v3.4c0,0.3,0,0.5,0,0.8h-0.3l-3.8-4.3V62c0,0.7,0.1,0.9,0.7,0.9h0.1v0.2c-0.3,0-0.6,0-1,0
			c-0.3,0-0.7,0-1,0v-0.2h0.1c0.5,0,0.7-0.4,0.7-0.9v-3.1c0-0.4-0.3-0.7-0.7-0.7h-0.1v-0.2c0.3,0,0.6,0,0.9,0c0.2,0,0.4,0,0.7,0
			L753.6,61.6z"/>
		<path fill="#FFFFFF" d="M753.6,61.6L753.6,61.6L753.6,61.6L753.6,61.6z M753.6,61.6L753.6,61.6L753.6,61.6z M753.7,63.2h0.2
			c0-0.2,0-0.5,0-0.7v-3.4c0-0.9,0.4-1,0.7-1h0.1v-0.2c-0.3,0-0.6,0-0.9,0c-0.3,0-0.7,0-1,0v0.2h0.1c0.2,0,0.7,0.1,0.7,0.7l0,2.8
			l0,0l0,0l-3.3-3.8c-0.2,0-0.4,0-0.7,0c-0.3,0-0.6,0-0.8,0l0,0.2h0.1c0.3,0,0.7,0.3,0.7,0.7v3.1c0,0.6-0.2,1-0.7,1l-0.1,0v0.2
			c0.3,0,0.7,0,1,0c0.3,0,0.6,0,0.9,0v-0.2h-0.1c-0.6,0-0.7-0.3-0.7-0.9v-3.2L753.7,63.2z M754,63.2l-0.3,0l-3.8-4.2v3
			c0,0.7,0.1,0.8,0.7,0.8h0.2v0v0.3h0c-0.3,0-0.6,0-1,0c-0.3,0-0.7,0-1,0h0v0v-0.3h0h0.1c0.5,0,0.6-0.3,0.6-0.9v-3.1
			c0-0.4-0.3-0.6-0.6-0.6h-0.1v0v-0.3h0c0.3,0,0.6,0,0.9,0c0.2,0,0.4,0,0.7,0l3.3,3.7v-2.7c0-0.6-0.4-0.7-0.6-0.7h-0.2v0v-0.3h0
			c0.4,0,0.7,0,1,0c0.3,0,0.6,0,0.9,0h0v0v0.3h0h-0.1c-0.3,0-0.6,0-0.6,0.9v3.4C754,62.7,754,63,754,63.2L754,63.2L754,63.2z"/>
		<path fill="#FFFFFF" d="M755.9,58.3c-0.6,0-0.6,0.1-0.7,0.7H755c0-0.2,0.1-0.4,0.1-0.6c0-0.2,0-0.4,0-0.6h0.2
			c0.1,0.2,0.2,0.2,0.4,0.2h3.8c0.2,0,0.4,0,0.4-0.2l0.2,0c0,0.2-0.1,0.4-0.1,0.6c0,0.2,0,0.4,0,0.6l-0.2,0.1c0-0.3-0.1-0.7-0.6-0.7
			h-1.2v4c0,0.6,0.3,0.6,0.6,0.6h0.1v0.2c-0.3,0-0.8,0-1.2,0c-0.4,0-1,0-1.3,0v-0.2h0.1c0.4,0,0.6,0,0.6-0.6v-4H755.9z"/>
		<path fill="#FFFFFF" d="M758.8,63.1c-0.3,0-0.8,0-1.2,0c-0.4,0-1,0-1.3,0h0v0v-0.3h0h0.1c0.4,0,0.6,0,0.6-0.6v-4h-1.2v0v0h1.3v4
			c0,0.6-0.2,0.7-0.7,0.7h-0.1v0.2c0.3,0,0.8,0,1.2,0C758,63,758.5,63.1,758.8,63.1l0-0.2h-0.1c-0.4,0-0.7-0.1-0.7-0.7v-4h1.3
			c0.5,0,0.6,0.4,0.6,0.7l0.2-0.1c0-0.2,0-0.4,0-0.6c0-0.2,0-0.4,0.1-0.6l-0.1,0c0,0.2-0.2,0.2-0.4,0.2h-3.8h0c-0.2,0-0.4,0-0.4-0.2
			h-0.1c0,0.2,0,0.4,0,0.6c0,0.2-0.1,0.4-0.1,0.6h0.2c0.1-0.5,0.2-0.7,0.7-0.7v0v0c-0.6,0-0.5,0.1-0.7,0.7l0,0h0h-0.3l0,0
			c0-0.2,0.1-0.4,0.1-0.6c0-0.2,0-0.4,0-0.6v0h0h0.2l0,0c0.1,0.2,0.2,0.2,0.4,0.2h0h3.8c0.2,0,0.4,0,0.4-0.2l0,0l0,0l0.2,0l0,0
			c0,0.2-0.1,0.4-0.1,0.6c0,0.2,0,0.4,0,0.6v0l0,0l-0.3,0.1l0,0c0-0.3,0-0.7-0.5-0.7h-1.2v3.9c0,0.6,0.2,0.6,0.6,0.6h0.2v0
			L758.8,63.1L758.8,63.1z"/>
		<path fill="#FFFFFF" d="M760.4,62.9h0.1c0.3,0,0.6,0,0.6-0.4v-3.9c0-0.4-0.3-0.4-0.6-0.4h-0.1v-0.2c0.5,0,1.2,0,1.9,0
			c0.6,0,1.4,0,1.9,0c0,0.3,0,0.8,0,1.1l-0.2,0.1c0-0.5-0.1-0.9-0.9-0.9h-1v2h0.9c0.4,0,0.5-0.3,0.6-0.7h0.2c0,0.3,0,0.6,0,0.9
			c0,0.3,0,0.6,0,0.9l-0.2,0c0-0.4-0.1-0.7-0.6-0.7H762v1.7c0,0.5,0.4,0.5,0.9,0.5c0.9,0,1.3-0.1,1.5-0.9l0.2,0.1
			c-0.1,0.4-0.2,0.8-0.3,1.2c-0.5,0-1.3,0-2,0c-0.7,0-1.6,0-2,0V62.9z"/>
		<path fill="#FFFFFF" d="M764.4,63.1c0.1-0.4,0.2-0.8,0.2-1.1l-0.1,0c-0.2,0.8-0.7,0.9-1.5,0.9c-0.5,0-0.9,0-0.9-0.5v-1.8h0.9
			c0.5,0,0.6,0.3,0.6,0.7l0.2,0c0-0.3,0-0.5,0-0.8c0-0.3,0-0.6,0-0.8h-0.2c0,0.4-0.2,0.7-0.6,0.7H762v-2h1.1c0.8,0,0.9,0.4,0.9,0.9
			l0.2,0c0-0.2,0-0.5,0-0.7c0-0.1,0-0.2,0-0.4c-0.5,0-1.3,0-1.9,0c-0.6,0-1.4,0-1.8,0v0.2h0.1c0.3,0,0.6,0,0.6,0.5v3.9
			c0,0.4-0.3,0.5-0.6,0.5h-0.1v0.2c0.4,0,1.3,0,2,0S763.9,63.1,764.4,63.1 M764.4,63.1c-0.5,0-1.3,0-2,0c-0.7,0-1.6,0-2,0h0v0v-0.2
			v0h0h0.1c0.3,0,0.5,0,0.5-0.4v-3.9c0-0.4-0.2-0.4-0.5-0.4h-0.1v0v-0.3h0c0.5,0,1.2,0,1.9,0c0.6,0,1.4,0,1.9,0h0v0
			c0,0.1,0,0.2,0,0.4c0,0.3,0,0.5,0,0.8v0l0,0l-0.3,0.1l0,0c0-0.5-0.1-0.8-0.9-0.8h-1v1.9h0.9c0.4,0,0.5-0.2,0.6-0.6l0,0h0h0.3l0,0
			c0,0.3,0,0.6,0,0.9c0,0.3,0,0.6,0,0.8l0,0l0,0l-0.3,0.1l0,0c-0.1-0.5-0.1-0.7-0.6-0.7H762v1.7c0,0.5,0.4,0.5,0.9,0.5
			c0.9,0,1.3,0,1.5-0.9l0,0l0,0l0.2,0.1l0,0C764.6,62.3,764.5,62.7,764.4,63.1L764.4,63.1L764.4,63.1z"/>
		<path fill="#FFFFFF" d="M766.6,60.4h0.4c0.7,0,1.1-0.3,1.1-1.2c0-0.7-0.4-1.1-1.1-1.1c-0.2,0-0.3,0-0.4,0V60.4z M765.6,58.7
			c0-0.5-0.3-0.6-0.5-0.6H765v-0.2c0.2,0,0.7,0,1.2,0c0.4,0,0.8,0,1.2,0c0.9,0,1.8,0.3,1.8,1.3c0,0.7-0.4,1.1-1,1.3l1.3,1.9
			c0.2,0.3,0.4,0.4,0.7,0.4v0.2c-0.2,0-0.5,0-0.7,0c-0.2,0-0.5,0-0.7,0c-0.6-0.8-1.1-1.6-1.6-2.4h-0.5v1.6c0,0.6,0.3,0.6,0.6,0.6
			h0.1v0.2c-0.4,0-0.9,0-1.3,0c-0.4,0-0.7,0-1.1,0v-0.2h0.1c0.3,0,0.5-0.1,0.5-0.4V58.7z"/>
		<path fill="#FFFFFF" d="M767,60.4c0.7,0,1.1-0.3,1.1-1.1c0-0.7-0.4-1.1-1.1-1.1c-0.2,0-0.3,0-0.4,0v2.2H767z M766.6,60.4
			L766.6,60.4l0-2.3l0,0c0.1,0,0.2,0,0.4,0c0.7,0,1.1,0.4,1.1,1.1c0,0.9-0.4,1.2-1.2,1.2H766.6z M766.6,60.6h0.5l0,0
			c0.5,0.9,1,1.7,1.5,2.4c0.2,0,0.5,0,0.7,0c0.2,0,0.5,0,0.7,0v-0.2c-0.4,0-0.5-0.1-0.7-0.5l-1.3-1.9l0,0c0.6-0.2,1-0.6,1-1.3
			c0-1-0.8-1.3-1.7-1.3c-0.4,0-0.8,0-1.2,0c-0.4,0-0.9,0-1.1,0v0.2h0.1c0.2,0,0.6,0,0.6,0.6v3.8c0,0.3-0.3,0.4-0.6,0.4H765v0.2
			c0.4,0,0.7,0,1,0c0.4,0,0.8,0,1.3,0v-0.2h-0.1c-0.3,0-0.6,0-0.6-0.6L766.6,60.6L766.6,60.6z M770.1,63.1c-0.3,0-0.5,0-0.7,0
			c-0.2,0-0.5,0-0.7,0c-0.6-0.8-1.1-1.6-1.5-2.4h-0.4v1.6c0,0.6,0.2,0.6,0.6,0.6h0.2v0v0.3h0c-0.4,0-0.9,0-1.3,0c-0.4,0-0.7,0-1.1,0
			h0v0v-0.3h0h0.1c0.3,0,0.5-0.1,0.5-0.4v-3.8c0-0.5-0.3-0.5-0.5-0.5h-0.2v0v-0.3h0c0.2,0,0.7,0,1.2,0c0.4,0,0.8,0,1.2,0
			c0.9,0,1.8,0.3,1.8,1.3c0,0.7-0.4,1.1-1,1.3l1.3,1.9c0.2,0.3,0.3,0.4,0.7,0.4l0,0v0L770.1,63.1L770.1,63.1z"/>
		<path fill="#FFFFFF" d="M775.1,61.6L775.1,61.6l0-2.8c0-0.6-0.4-0.7-0.6-0.7h-0.2v-0.2c0.3,0,0.7,0,1,0c0.3,0,0.6,0,0.9,0v0.2
			h-0.1c-0.3,0-0.7,0.1-0.7,0.9v3.4c0,0.3,0,0.5,0,0.8h-0.3l-3.8-4.3V62c0,0.7,0.1,0.9,0.7,0.9h0.1v0.2c-0.3,0-0.6,0-1,0
			c-0.3,0-0.7,0-1,0v-0.2h0.1c0.5,0,0.7-0.4,0.7-0.9v-3.1c0-0.4-0.3-0.7-0.7-0.7h-0.1v-0.2c0.3,0,0.6,0,0.9,0c0.2,0,0.4,0,0.7,0
			L775.1,61.6z"/>
		<path fill="#FFFFFF" d="M775.1,61.6L775.1,61.6L775.1,61.6L775.1,61.6z M775.1,61.6L775.1,61.6L775.1,61.6z M775.3,63.2h0.2
			c0-0.2,0-0.5,0-0.7v-3.4c0-0.9,0.4-1,0.7-1h0.1v-0.2c-0.3,0-0.6,0-0.9,0c-0.3,0-0.7,0-1,0v0.2h0.1c0.2,0,0.7,0.1,0.7,0.7l0,2.8
			l0,0l0,0l-3.3-3.8c-0.2,0-0.4,0-0.7,0c-0.3,0-0.6,0-0.8,0v0.2h0.1c0.4,0,0.7,0.3,0.7,0.7v3.1c0,0.6-0.2,1-0.7,1l-0.1,0v0.2
			c0.3,0,0.7,0,1,0c0.3,0,0.6,0,0.9,0v-0.2h-0.1c-0.6,0-0.7-0.3-0.7-0.9v-3.2L775.3,63.2z M775.6,63.2l-0.3,0l-3.8-4.2v3
			c0,0.7,0.1,0.8,0.7,0.8h0.2v0v0.3h0c-0.3,0-0.6,0-1,0c-0.3,0-0.7,0-1,0h0v0v-0.3h0h0.1c0.5,0,0.6-0.3,0.6-0.9v-3.1
			c0-0.4-0.3-0.6-0.6-0.6h-0.1v0v-0.3h0c0.3,0,0.6,0,0.9,0c0.2,0,0.4,0,0.7,0l3.3,3.7v-2.7c0-0.6-0.4-0.7-0.6-0.7h-0.2v0v-0.3h0
			c0.4,0,0.7,0,1,0c0.3,0,0.6,0,0.9,0h0v0v0.3h0h-0.1c-0.3,0-0.6,0-0.6,0.9v3.4C775.6,62.7,775.6,63,775.6,63.2L775.6,63.2
			L775.6,63.2z"/>
		<path fill="#FFFFFF" d="M778.6,58.7L778.6,58.7l-0.7,2.1h1.4L778.6,58.7z M777.5,62c-0.1,0.3-0.2,0.4-0.2,0.6
			c0,0.2,0.3,0.3,0.6,0.3h0.1v0.2c-0.3,0-0.6,0-0.9,0c-0.3,0-0.5,0-0.8,0v-0.2h0c0.3,0,0.5-0.2,0.6-0.5l1.2-3.4
			c0.1-0.3,0.2-0.6,0.3-0.9c0.2-0.1,0.5-0.2,0.7-0.3c0,0,0,0,0.1,0c0,0,0,0,0.1,0c0,0.1,0,0.1,0.1,0.2l1.4,3.9
			c0.1,0.3,0.2,0.5,0.3,0.8c0.1,0.2,0.2,0.3,0.5,0.3h0v0.2c-0.3,0-0.7,0-1,0c-0.4,0-0.7,0-1.1,0v-0.2h0.1c0.2,0,0.5,0,0.5-0.2
			c0-0.1-0.1-0.3-0.2-0.5l-0.3-0.9h-1.7L777.5,62z"/>
		<path fill="#FFFFFF" d="M778.6,58.7L778.6,58.7L778.6,58.7z M777.9,60.8h1.3l-0.6-2L777.9,60.8z M777.8,60.9l0.7-2.2h0h0v0l0,0
			l0,0v0h0l0.7,2.2H777.8z M779.4,63.1c0.4,0,0.7,0,1.1,0c0.3,0,0.7,0,1,0v-0.2h0c-0.3,0-0.4-0.1-0.5-0.3c-0.1-0.2-0.2-0.5-0.3-0.8
			l-1.4-3.9c0-0.1,0-0.1-0.1-0.2c0,0,0,0,0,0h0c0,0,0,0,0,0c-0.1,0.1-0.4,0.2-0.7,0.3c0,0.3-0.2,0.7-0.3,0.9l-1.2,3.4
			c-0.1,0.3-0.4,0.5-0.7,0.5h0v0.2c0.3,0,0.5,0,0.8,0c0.3,0,0.6,0,0.9,0v-0.2h0c-0.2,0-0.6,0-0.6-0.3c0-0.1,0.1-0.3,0.2-0.6l0,0l0,0
			l0.2-0.8h1.7l0.3,0.9c0.1,0.2,0.2,0.4,0.2,0.5c0,0.2-0.3,0.2-0.5,0.2h0V63.1z M781.5,63.1c-0.3,0-0.7,0-1,0c-0.4,0-0.7,0-1.1,0
			l0,0v0v-0.3h0h0.1c0.2,0,0.4,0,0.4-0.2c0-0.1-0.1-0.3-0.1-0.5l-0.3-0.8h-1.6l-0.2,0.8c-0.1,0.3-0.2,0.5-0.2,0.6
			c0,0.2,0.3,0.2,0.5,0.2h0.1v0v0.3l0,0c-0.3,0-0.6,0-0.9,0c-0.3,0-0.5,0-0.8,0l0,0v0v-0.3h0h0c0.3,0,0.5-0.2,0.6-0.5l1.2-3.4
			c0.1-0.3,0.2-0.6,0.3-0.9c0.2-0.1,0.5-0.2,0.7-0.3c0,0,0,0,0.1,0c0,0,0.1,0,0.1,0c0,0.1,0,0.1,0.1,0.2l1.4,3.9
			c0.1,0.3,0.2,0.5,0.3,0.8c0.1,0.2,0.2,0.3,0.5,0.3h0.1v0L781.5,63.1L781.5,63.1z"/>
		<path fill="#FFFFFF" d="M781.8,58.3c-0.6,0-0.6,0.1-0.7,0.7h-0.2c0-0.2,0.1-0.4,0.1-0.6c0-0.2,0-0.4,0-0.6h0.2
			c0.1,0.2,0.2,0.2,0.4,0.2h3.8c0.2,0,0.4,0,0.4-0.2l0.2,0c0,0.2-0.1,0.4-0.1,0.6c0,0.2,0,0.4,0,0.6l-0.2,0.1c0-0.3-0.1-0.7-0.6-0.7
			H784v4c0,0.6,0.3,0.6,0.6,0.6h0.1v0.2c-0.3,0-0.8,0-1.2,0c-0.4,0-1,0-1.3,0v-0.2h0.1c0.4,0,0.6,0,0.6-0.6v-4H781.8z"/>
		<path fill="#FFFFFF" d="M784.7,63.1c-0.3,0-0.8,0-1.2,0c-0.4,0-1,0-1.3,0h0v0v-0.3h0h0.1c0.4,0,0.6,0,0.6-0.6l0-4h-1.2v0v0h1.3v4
			c0,0.6-0.2,0.7-0.7,0.7h-0.1v0.2c0.3,0,0.8,0,1.2,0C783.9,63,784.4,63.1,784.7,63.1l0-0.2h-0.1c-0.4,0-0.6-0.1-0.7-0.7v-4h1.3
			c0.5,0,0.6,0.4,0.6,0.7l0.2-0.1c0-0.2,0-0.4,0-0.6c0-0.2,0-0.4,0.1-0.6l-0.1,0c0,0.2-0.2,0.2-0.4,0.2h-3.8h0c-0.2,0-0.4,0-0.4-0.2
			H781c0,0.2,0,0.4,0,0.6c0,0.2-0.1,0.4-0.1,0.6h0.2c0.1-0.5,0.2-0.7,0.7-0.7v0v0c-0.6,0-0.5,0.1-0.7,0.7l0,0h0h-0.3l0,0
			c0-0.2,0.1-0.4,0.1-0.6c0-0.2,0-0.4,0-0.6v0h0h0.2l0,0c0.1,0.2,0.2,0.2,0.4,0.2c0,0,0,0,0,0h3.8c0.2,0,0.4,0,0.4-0.2l0,0l0,0
			l0.2,0l0,0c0,0.2-0.1,0.4-0.1,0.6c0,0.2,0,0.4,0,0.6v0l0,0l-0.3,0.1v0c0-0.3,0-0.7-0.5-0.7H784v3.9c0,0.6,0.2,0.6,0.6,0.6h0.2v0
			L784.7,63.1L784.7,63.1z"/>
		<path fill="#FFFFFF" d="M786.4,62.9h0.1c0.3,0,0.6,0,0.6-0.4v-3.9c0-0.4-0.3-0.4-0.6-0.4h-0.1v-0.2c0.3,0,0.7,0,1.1,0
			c0.4,0,0.8,0,1.2,0v0.2h-0.1c-0.3,0-0.6,0-0.6,0.4v3.9c0,0.4,0.3,0.4,0.6,0.4h0.1v0.2c-0.4,0-0.8,0-1.2,0c-0.4,0-0.8,0-1.1,0V62.9
			z"/>
		<path fill="#FFFFFF" d="M788.6,63.1v-0.2h-0.1c-0.3,0-0.6,0-0.6-0.5v-3.9c0-0.4,0.3-0.5,0.6-0.5h0.1v-0.2c-0.3,0-0.8,0-1.1,0
			c-0.4,0-0.8,0-1.1,0v0.2h0.1c0.3,0,0.6,0,0.6,0.5v3.9c0,0.4-0.3,0.5-0.6,0.5h-0.1v0.2c0.3,0,0.7,0,1.1,0
			C787.8,63,788.2,63.1,788.6,63.1 M788.6,63.1c-0.4,0-0.8,0-1.2,0c-0.4,0-0.8,0-1.1,0h0v0v-0.2v0h0h0.1c0.3,0,0.5,0,0.5-0.4v-3.9
			c0-0.4-0.3-0.4-0.5-0.4h-0.1v0v-0.3h0c0.3,0,0.7,0,1.1,0c0.4,0,0.8,0,1.2,0h0v0v0.3h0h-0.1c-0.3,0-0.5,0-0.5,0.4v3.9
			c0,0.4,0.2,0.4,0.5,0.4h0.1v0L788.6,63.1L788.6,63.1z"/>
		<path fill="#FFFFFF" d="M791.7,62.9c1.4,0,1.7-1.3,1.7-2.4c0-1.1-0.6-2.4-1.8-2.4c-1.3,0-1.7,1.2-1.7,2.2
			C789.9,61.6,790.5,62.9,791.7,62.9 M791.6,57.8c1.6,0,2.9,1,2.9,2.6c0,1.7-1.2,2.9-2.8,2.9c-1.6,0-2.8-1.1-2.8-2.7
			C788.8,59,790,57.8,791.6,57.8"/>
		<path fill="#FFFFFF" d="M789.9,60.3c0-1,0.4-2.2,1.7-2.2c1.3,0,1.9,1.3,1.9,2.4c0,1.1-0.3,2.4-1.7,2.4v0v0c1.4,0,1.7-1.2,1.7-2.3
			c0-1.1-0.6-2.4-1.8-2.4C790.3,58.1,789.9,59.3,789.9,60.3c0.1,1.3,0.7,2.6,1.9,2.6v0v0C790.5,62.9,789.9,61.6,789.9,60.3
			 M788.8,60.5c0-1.6,1.2-2.8,2.8-2.8v0v0C790.1,57.8,788.9,59,788.8,60.5c0.1,1.6,1.3,2.6,2.8,2.6c1.6,0,2.8-1.1,2.8-2.8
			c0-1.6-1.2-2.5-2.8-2.5v0v0c1.6,0,2.9,1,2.9,2.6c0,1.7-1.2,2.9-2.9,2.9C790,63.2,788.8,62.1,788.8,60.5"/>
		<path fill="#FFFFFF" d="M799.5,61.6L799.5,61.6l0-2.8c0-0.6-0.4-0.7-0.7-0.7h-0.2v-0.2c0.3,0,0.7,0,1,0c0.3,0,0.6,0,0.9,0v0.2
			h-0.1c-0.3,0-0.7,0.1-0.7,0.9v3.4c0,0.3,0,0.5,0,0.8h-0.3l-3.8-4.3V62c0,0.7,0.1,0.9,0.7,0.9h0.1v0.2c-0.3,0-0.6,0-1,0
			c-0.3,0-0.7,0-1,0v-0.2h0.1c0.5,0,0.7-0.4,0.7-0.9v-3.1c0-0.4-0.3-0.7-0.7-0.7h-0.1v-0.2c0.3,0,0.6,0,0.9,0c0.2,0,0.4,0,0.7,0
			L799.5,61.6z"/>
		<path fill="#FFFFFF" d="M799.5,61.6L799.5,61.6L799.5,61.6L799.5,61.6z M799.5,61.6L799.5,61.6L799.5,61.6z M799.6,63.2h0.2
			c0-0.2,0-0.5,0-0.7v-3.4c0-0.9,0.4-1,0.7-1h0.1v-0.2c-0.3,0-0.6,0-0.9,0c-0.3,0-0.7,0-1,0v0.2h0.1c0.2,0,0.7,0.1,0.7,0.7l0,2.8
			l0,0l0,0l-3.3-3.8c-0.2,0-0.4,0-0.7,0c-0.3,0-0.6,0-0.8,0v0.2h0.1c0.4,0,0.7,0.3,0.7,0.7v3.1c0,0.6-0.2,1-0.7,1l-0.1,0v0.2
			c0.3,0,0.7,0,1,0c0.3,0,0.6,0,0.9,0v-0.2h-0.1c-0.6,0-0.7-0.3-0.7-0.9v-3.2L799.6,63.2z M799.9,63.2l-0.3,0l-3.8-4.2v3
			c0,0.7,0.1,0.8,0.7,0.8h0.2v0v0.3h0c-0.3,0-0.6,0-1,0c-0.3,0-0.7,0-1,0h0v0v-0.3h0h0.1c0.5,0,0.6-0.3,0.6-0.9v-3.1
			c0-0.4-0.3-0.6-0.6-0.6h-0.1v0v-0.3h0c0.3,0,0.6,0,0.9,0c0.2,0,0.4,0,0.7,0l3.3,3.7v-2.7c0-0.6-0.4-0.7-0.6-0.7h-0.2v0v-0.3h0
			c0.4,0,0.7,0,1,0c0.3,0,0.6,0,0.9,0h0v0v0.3h0h-0.1c-0.3,0-0.6,0-0.6,0.9v3.4C799.9,62.7,799.9,63,799.9,63.2L799.9,63.2
			L799.9,63.2z"/>
		<path fill="#FFFFFF" d="M802.9,58.7L802.9,58.7l-0.7,2.1h1.4L802.9,58.7z M801.8,62c-0.1,0.3-0.2,0.4-0.2,0.6
			c0,0.2,0.3,0.3,0.6,0.3h0.1v0.2c-0.3,0-0.6,0-0.9,0c-0.3,0-0.5,0-0.8,0v-0.2h0c0.3,0,0.5-0.2,0.7-0.5l1.2-3.4
			c0.1-0.3,0.2-0.6,0.3-0.9c0.2-0.1,0.5-0.2,0.7-0.3c0,0,0,0,0.1,0c0,0,0,0,0.1,0c0,0.1,0,0.1,0.1,0.2l1.4,3.9
			c0.1,0.3,0.2,0.5,0.3,0.8c0.1,0.2,0.2,0.3,0.5,0.3h0v0.2c-0.3,0-0.7,0-1,0c-0.4,0-0.7,0-1.1,0v-0.2h0.1c0.2,0,0.5,0,0.5-0.2
			c0-0.1-0.1-0.3-0.2-0.5l-0.3-0.9h-1.7L801.8,62z"/>
		<path fill="#FFFFFF" d="M802.9,58.7L802.9,58.7L802.9,58.7z M802.3,60.8h1.3l-0.7-2L802.3,60.8z M802.2,60.9l0.7-2.2h0h0v0l0,0
			l0,0v0h0l0.7,2.2H802.2z M803.7,63.1c0.4,0,0.7,0,1.1,0c0.3,0,0.7,0,1,0l0-0.2h0c-0.3,0-0.4-0.1-0.5-0.3c-0.1-0.2-0.2-0.5-0.3-0.8
			l-1.4-3.9c0-0.1,0-0.1-0.1-0.2c0,0,0,0,0,0h0c0,0,0,0,0,0c-0.1,0.1-0.4,0.2-0.7,0.3c0,0.3-0.2,0.7-0.3,0.9l-1.2,3.4
			c-0.1,0.3-0.4,0.5-0.7,0.5h0v0.2c0.3,0,0.5,0,0.8,0c0.3,0,0.6,0,0.9,0v-0.2h-0.1c-0.2,0-0.6,0-0.6-0.3c0-0.1,0.1-0.3,0.2-0.6l0,0
			l0,0l0.2-0.8h1.7l0.3,0.9c0.1,0.2,0.2,0.4,0.2,0.5c0,0.2-0.3,0.2-0.5,0.2h-0.1V63.1z M805.8,63.1c-0.3,0-0.7,0-1,0
			c-0.4,0-0.7,0-1.1,0l0,0v0v-0.3h0h0.1c0.2,0,0.4,0,0.4-0.2c0-0.1-0.1-0.3-0.1-0.5l-0.3-0.8h-1.6l-0.2,0.8
			c-0.1,0.3-0.2,0.5-0.2,0.6c0,0.2,0.3,0.2,0.5,0.2h0.1v0v0.3l0,0c-0.3,0-0.6,0-0.9,0c-0.3,0-0.5,0-0.8,0l0,0v0v-0.3h0h0
			c0.3,0,0.5-0.2,0.6-0.5l1.2-3.4c0.1-0.3,0.2-0.6,0.3-0.9c0.2-0.1,0.5-0.2,0.7-0.3c0,0,0,0,0.1,0c0,0,0.1,0,0.1,0
			c0,0.1,0,0.1,0.1,0.2l1.4,3.9c0.1,0.3,0.2,0.5,0.3,0.8c0.1,0.2,0.2,0.3,0.5,0.3h0.1v0L805.8,63.1L805.8,63.1z"/>
		<path fill="#FFFFFF" d="M807.7,62.4c0,0.3,0.2,0.4,0.4,0.4c0.3,0,0.6,0,1,0c0.3,0,0.6-0.2,0.7-0.4c0.1-0.2,0.2-0.4,0.2-0.5h0.2
			c-0.1,0.4-0.2,0.8-0.3,1.3c-0.7,0-1.3,0-2,0c-0.7,0-1.3,0-2,0v-0.2h0.1c0.3,0,0.6,0,0.6-0.5v-3.8c0-0.4-0.3-0.4-0.6-0.4h-0.1v-0.2
			c0.4,0,0.8,0,1.2,0c0.4,0,0.8,0,1.1,0v0.2h-0.2c-0.3,0-0.5,0-0.5,0.4V62.4z"/>
		<path fill="#FFFFFF" d="M810,63.1c0.1-0.4,0.2-0.8,0.3-1.2h-0.2c0,0.2-0.1,0.4-0.2,0.5c-0.1,0.2-0.4,0.4-0.7,0.4
			c-0.2,0-0.4,0-0.6,0c-0.1,0-0.3,0-0.4,0c-0.2,0-0.5-0.1-0.5-0.4v-3.8c0-0.4,0.3-0.4,0.5-0.4h0.2v-0.2c-0.4,0-0.7,0-1.1,0
			c-0.4,0-0.8,0-1.1,0v0.2h0.1c0.3,0,0.6,0,0.6,0.5v3.8c0,0.5-0.3,0.5-0.6,0.5h-0.1v0.2c0.6,0,1.3,0,1.9,0S809.3,63.1,810,63.1
			 M810,63.1c-0.7,0-1.3,0-2,0c-0.7,0-1.3,0-2,0h0v0v-0.3h0h0.1c0.3,0,0.5,0,0.5-0.5v-3.8c0-0.4-0.3-0.4-0.5-0.4h-0.1v0v-0.3h0
			c0.4,0,0.8,0,1.2,0c0.4,0,0.8,0,1.1,0h0v0v0.3h0h-0.2c-0.3,0-0.5,0-0.5,0.4v3.8c0,0.3,0.2,0.4,0.4,0.4c0.1,0,0.3,0,0.4,0
			c0.2,0,0.4,0,0.6,0c0.3,0,0.6-0.2,0.7-0.4c0.1-0.2,0.2-0.4,0.2-0.5l0,0h0h0.3l0,0C810.2,62.3,810.1,62.7,810,63.1L810,63.1
			L810,63.1z"/>
	</g>
</g>
<g>
	<path fill="#0078A9" d="M351,616.4c0,2.3-1.9,4.2-4.2,4.2H229.8c-2.3,0-4.2-1.9-4.2-4.2v-70c0-2.3,1.9-4.2,4.2-4.2h117.1
		c2.3,0,4.2,1.9,4.2,4.2V616.4z"/>
	<g>
		<path fill="#FFFFFF" d="M264.5,579.6v-1.3l-0.6,1.3h-5.2l-0.7-1.3v1.3h-9.7l-1.1-2.7h-1.9l-1.2,2.7h-5v-8.2l3.7-8.3h7.1l1,2.4V563
			h8.6l1.9,4l1.9-4h27.3c0,0,1.4,0,2.4,0.6l0-0.6h6.9v0.9c0,0,1.2-0.9,3.1-0.9s12.1,0,12.1,0l1.1,2.4V563h7.8l1.4,2.4V563h7.4v16.6
			h-7.6l-1.8-2.9v2.9h-9.5l-1.3-3h-1.9l-1.3,3h-5.7c0,0-2.1,0-3.7-1.2c0,0.6,0,1.2,0,1.2h-11.4c0,0,0-3.3,0-3.9
			c0-0.6-0.4-0.5-0.4-0.5h-0.4v4.4H264.5z"/>
		<path fill="#FFFFFF" d="M258.8,583.1h15l2.2,2.5l2.2-2.5h11.5c0,0,1.1,0,2.1,0.6v-0.6c0,0,9,0,10.3,0c1.3,0,2.4,0.7,2.4,0.7v-0.7
			h13.2v0.6c0,0,0.9-0.6,2.2-0.6c1.3,0,8.6,0,8.6,0v0.6c0,0,1.1-0.6,2.2-0.6c1.1,0,6.8,0,6.8,0v15.6c0,0-0.9,1-2.7,1h-8.9v-0.5
			c0,0-0.8,0.5-2.1,0.5c-1.3,0-23.7,0-23.7,0s0-3.6,0-4c0-0.4-0.2-0.5-0.5-0.5h-0.3v4.5h-7.4v-4.5c0,0-0.8,0.4-2.2,0.4
			c-1.4,0-2.7,0-2.7,0v4h-9.1l-2.1-2.5l-2.2,2.5h-14.8V583.1z"/>
		<polygon fill="#0078A9" points="306.1,585.6 315.6,585.6 315.6,588.2 309,588.2 309,590.4 315.4,590.4 315.4,592.6 309,592.6 
			309,594.9 315.6,594.9 315.6,597.4 306.1,597.4 		"/>
		<path fill="#0078A9" d="M333.8,590.2c3.5,0.2,3.8,2,3.8,3.8c0,2.2-1.8,3.4-3.7,3.4h-6.1v-2.5h4.7c0.8,0,2,0,2-1.1
			c0-0.5-0.2-0.9-1.1-1c-0.4-0.1-1.8-0.1-2-0.1c-3.2-0.1-3.9-1.7-3.9-3.6c0-2.2,1.5-3.4,3.4-3.4h6.1v2.5h-4.4c-1,0-2.1-0.1-2.1,1
			c0,0.7,0.5,0.9,1.2,0.9C332,590.1,333.6,590.2,333.8,590.2z"/>
		<path fill="#0078A9" d="M322.9,590.2c3.5,0.2,3.8,2,3.8,3.8c0,2.2-1.8,3.4-3.7,3.4H317v-2.5h4.7c0.8,0,2,0,2-1.1
			c0-0.5-0.2-0.9-1.1-1c-0.4-0.1-1.8-0.1-2-0.1c-3.2-0.1-3.9-1.7-3.9-3.6c0-2.2,1.5-3.4,3.4-3.4h6.1v2.5h-4.4c-1,0-2.1-0.1-2.1,1
			c0,0.7,0.5,0.9,1.2,0.9C321.1,590.1,322.7,590.2,322.9,590.2z"/>
		<path fill="#0078A9" d="M288.7,585.7h-10.1l-3.3,3.6l-3.2-3.7h-11.4v11.7h11l3.5-3.9l3.4,3.9h5.5v-4h3.9c1.5,0,4.2-0.1,4.2-4.2
			C292.2,586.3,290.2,585.7,288.7,585.7z M270.3,594.9h-6.6v-2.3h6.4v-2.2h-6.4v-2.2l7,0l2.8,3.2L270.3,594.9z M281.3,596.3
			l-4.1-4.9l4.1-4.6V596.3z M287.8,591h-3.6v-2.8h3.6c1.2,0,1.6,0.8,1.6,1.3C289.4,590.3,289,591,287.8,591z"/>
		<path fill="#0078A9" d="M302.7,592c1.6-0.8,2-1.8,2-3.3c0-2.5-2-3.1-3.5-3.1h-7.5v11.7h2.9v-4.1h3.8c1,0,1.4,1,1.4,2l0.1,2.2h2.8
			l-0.1-2.4C304.6,593.1,304,592.2,302.7,592z M300.2,590.8h-3.6v-2.7h3.6c1.2,0,1.6,0.8,1.6,1.3
			C301.8,590.3,301.4,590.8,300.2,590.8z"/>
		<rect x="294.9" y="565.4" fill="#0078A9" width="2.9" height="11.8"/>
		<polygon fill="#0078A9" points="271.3,565.4 280.7,565.4 280.7,567.9 274.1,567.9 274.1,570.1 280.5,570.1 280.5,572.3 
			274.1,572.3 274.1,574.6 280.7,574.6 280.7,577.1 271.3,577.1 		"/>
		<path fill="#0078A9" d="M291.4,571.8c1.6-0.8,2-1.8,2-3.3c0-2.5-2-3.1-3.5-3.1h-7.5v11.7h2.9V573h3.8c1,0,1.4,1,1.4,2l0.1,2.2h2.8
			l-0.1-2.4C293.2,572.8,292.7,571.9,291.4,571.8z M288.9,570.6h-3.6v-2.7h3.6c1.2,0,1.6,0.8,1.6,1.3
			C290.5,570,290,570.6,288.9,570.6z"/>
		<path fill="#0078A9" d="M264.6,565.4l-3.5,7.9l-3.5-7.9H253v11.3l-5-11.3h-3.8l-5.1,11.7h3l1.1-2.6h5.8l1.1,2.6h5.8v-8.7l3.9,8.7
			h2.6l3.9-8.6v8.6h2.9v-11.7H264.6z M244.3,572l1.7-4.1l1.8,4.1H244.3z"/>
		<path fill="#0078A9" d="M327.5,565.4v8.1l-4.9-8.1h-4.3v11l-4.9-11h-3.8l-4,9.1c0,0-1.7,0-1.8,0c-0.7-0.1-1.8-0.6-1.8-2.7v-0.9
			c0-2.8,1.5-3,3.4-3h1.8v-2.6h-3.8c-1.3,0-4.2,1-4.3,5.8c-0.1,3.3,1.3,5.9,4.5,5.9h3.8l1.1-2.6h5.8l1.1,2.6h5.7v-8.6l5.2,8.6h3.9
			v-11.8H327.5z M309.8,572l1.7-4.1l1.8,4.1H309.8z"/>
	</g>
</g>
<g>
	<path fill="#0078A9" d="M411.9,75.6c0,2.3-1.9,4.2-4.2,4.2H290.7c-2.3,0-4.2-1.9-4.2-4.2v-70c0-2.3,1.9-4.2,4.2-4.2h117.1
		c2.3,0,4.2,1.9,4.2,4.2V75.6z"/>
	<g>
		<path fill="#FFFFFF" d="M325.4,38.7v-1.3l-0.6,1.3h-5.2l-0.7-1.3v1.3h-9.7l-1.1-2.7h-1.9l-1.2,2.7h-5v-8.2l3.7-8.3h7.1l1,2.4v-2.3
			h8.6l1.9,4l1.9-4h27.3c0,0,1.4,0,2.4,0.6l0-0.6h6.9v0.9c0,0,1.2-0.9,3.1-0.9s12.1,0,12.1,0l1.1,2.4v-2.4h7.8l1.4,2.4v-2.4h7.4
			v16.6h-7.6l-1.8-2.9v2.9h-9.5l-1.3-3h-1.9l-1.3,3h-5.7c0,0-2.1,0-3.7-1.2c0,0.6,0,1.2,0,1.2h-11.4c0,0,0-3.3,0-3.9
			c0-0.6-0.4-0.5-0.4-0.5h-0.4v4.4H325.4z"/>
		<path fill="#FFFFFF" d="M319.7,42.3h15l2.2,2.5l2.2-2.5h11.5c0,0,1.1,0,2.1,0.6v-0.6c0,0,9,0,10.3,0c1.3,0,2.4,0.7,2.4,0.7v-0.7
			h13.2v0.6c0,0,0.9-0.6,2.2-0.6c1.3,0,8.6,0,8.6,0v0.6c0,0,1.1-0.6,2.2-0.6c1.1,0,6.8,0,6.8,0v15.6c0,0-0.9,1-2.7,1h-8.9v-0.5
			c0,0-0.8,0.5-2.1,0.5c-1.3,0-23.7,0-23.7,0s0-3.6,0-4c0-0.4-0.2-0.5-0.5-0.5h-0.3v4.5h-7.4v-4.5c0,0-0.8,0.4-2.2,0.4
			c-1.4,0-2.7,0-2.7,0v4h-9.1l-2.1-2.5l-2.2,2.5h-14.8V42.3z"/>
		<polygon fill="#0078A9" points="367,44.8 376.4,44.8 376.4,47.3 369.9,47.3 369.9,49.5 376.3,49.5 376.3,51.8 369.9,51.8 
			369.9,54.1 376.4,54.1 376.4,56.6 367,56.6 		"/>
		<path fill="#0078A9" d="M394.7,49.4c3.5,0.2,3.8,2,3.8,3.8c0,2.2-1.8,3.4-3.7,3.4h-6.1v-2.5h4.7c0.8,0,2,0,2-1.1
			c0-0.5-0.2-0.9-1.1-1c-0.4-0.1-1.8-0.1-2-0.1c-3.2-0.1-3.9-1.7-3.9-3.6c0-2.2,1.5-3.4,3.4-3.4h6.1v2.5h-4.4c-1,0-2.1-0.1-2.1,1
			c0,0.7,0.5,0.9,1.2,0.9C392.9,49.3,394.4,49.4,394.7,49.4z"/>
		<path fill="#0078A9" d="M383.8,49.4c3.5,0.2,3.8,2,3.8,3.8c0,2.2-1.8,3.4-3.7,3.4h-6.1v-2.5h4.7c0.8,0,2,0,2-1.1
			c0-0.5-0.2-0.9-1.1-1c-0.4-0.1-1.8-0.1-2-0.1c-3.2-0.1-3.9-1.7-3.9-3.6c0-2.2,1.5-3.4,3.4-3.4h6.1v2.5h-4.4c-1,0-2.1-0.1-2.1,1
			c0,0.7,0.5,0.9,1.2,0.9C382,49.3,383.6,49.4,383.8,49.4z"/>
		<path fill="#0078A9" d="M349.6,44.8h-10.1l-3.3,3.6l-3.2-3.7h-11.4v11.7h11l3.5-3.9l3.4,3.9h5.5v-4h3.9c1.5,0,4.2-0.1,4.2-4.2
			C353.1,45.5,351,44.8,349.6,44.8z M331.1,54.1h-6.6v-2.3h6.4v-2.2h-6.4v-2.2l7,0l2.8,3.2L331.1,54.1z M342.2,55.5l-4.1-4.9
			l4.1-4.6V55.5z M348.7,50.2h-3.6v-2.8h3.6c1.2,0,1.6,0.8,1.6,1.3C350.3,49.5,349.8,50.2,348.7,50.2z"/>
		<path fill="#0078A9" d="M363.5,51.2c1.6-0.8,2-1.8,2-3.3c0-2.5-2-3.1-3.5-3.1h-7.5v11.7h2.9v-4.1h3.8c1,0,1.4,1,1.4,2l0.1,2.2h2.8
			l-0.1-2.4C365.4,52.3,364.9,51.4,363.5,51.2z M361.1,50h-3.6v-2.7h3.6c1.2,0,1.6,0.8,1.6,1.3C362.7,49.5,362.2,50,361.1,50z"/>
		<rect x="355.7" y="24.6" fill="#0078A9" width="2.9" height="11.8"/>
		<polygon fill="#0078A9" points="332.1,24.6 341.6,24.6 341.6,27.1 335,27.1 335,29.3 341.4,29.3 341.4,31.5 335,31.5 335,33.8 
			341.6,33.8 341.6,36.3 332.1,36.3 		"/>
		<path fill="#0078A9" d="M352.2,31c1.6-0.8,2-1.8,2-3.3c0-2.5-2-3.1-3.5-3.1h-7.5v11.7h2.9v-4.1h3.8c1,0,1.4,1,1.4,2l0.1,2.2h2.8
			l-0.1-2.4C354.1,32,353.6,31.1,352.2,31z M349.8,29.7h-3.6v-2.7h3.6c1.2,0,1.6,0.8,1.6,1.3C351.3,29.2,350.9,29.7,349.8,29.7z"/>
		<path fill="#0078A9" d="M325.5,24.6l-3.5,7.9l-3.5-7.9h-4.5v11.3l-5-11.3h-3.8l-5.1,11.7h3l1.1-2.6h5.8l1.1,2.6h5.8v-8.7l3.9,8.7
			h2.6l3.9-8.6v8.6h2.9V24.6H325.5z M305.2,31.2l1.7-4.1l1.8,4.1H305.2z"/>
		<path fill="#0078A9" d="M388.4,24.6v8.1l-4.9-8.1h-4.3v11l-4.9-11h-3.8l-4,9.1c0,0-1.7,0-1.8,0c-0.7-0.1-1.8-0.6-1.8-2.7v-0.9
			c0-2.8,1.5-3,3.4-3h1.8v-2.6h-3.8c-1.3,0-4.2,1-4.3,5.8c-0.1,3.3,1.3,5.9,4.5,5.9h3.8l1.1-2.6h5.8l1.1,2.6h5.7v-8.6l5.2,8.6h3.9
			V24.6H388.4z M370.7,31.2l1.7-4.1l1.8,4.1H370.7z"/>
	</g>
</g>
<path fill="#0C489C" d="M554.4,76c0,2.3-1.9,4.2-4.2,4.2H433.2c-2.3,0-4.2-1.9-4.2-4.2v-70c0-2.3,1.9-4.2,4.2-4.2h117.1
	c2.3,0,4.2,1.9,4.2,4.2V76z"/>
<path fill="#FFFFFF" d="M513.5,43.6c0.2,4.6,0.3,9.3,0.1,13.9c-0.2,1.8-1.3,3.6-3,4.6c-1.3,0.8-2.9,0.9-4.6,1l-6.1-0.1l0-38.8
	c0.3-2.6,2.2-4.8,4.6-5.5c3-0.4,5.7-0.2,8.8-0.3l0.2,2v22l-0.1,0.1V43.6z"/>
<path fill="#FFFFFF" d="M469.7,42.2V23.9c0.4-2.1,2.1-4,4-4.7c3-0.9,6.4-0.4,9.4-0.5c0.2,3,0,6.7,0.1,9.3l0.2,23.8
	c-0.4,3.7,1,8.6-3.6,10.7c-2.9,1.4-6.8,0.5-10.1,0.8l-0.1-0.5V42.9V42.2z"/>
<path fill="#FFFFFF" d="M498.4,21.2l0.1,37.1c-0.5,1.8-1.9,3.7-3.8,4.3c-2.9,1-6.5,0.5-9.7,0.5l-0.2-39.1c0.2-1.8,1.4-3.4,3-4.4
	c1.1-0.8,2.5-1,4-1.1h6.5L498.4,21.2z"/>
<g>
	<g>
		<path fill="#0C489C" d="M469.7,42.9c1.2,1.6,2.9,2.8,4.9,2.9c2.5,0.2,5.8,0.5,7.5-1.9c1.1-1.2,0.5-2.9,0.7-4.5l-0.1-2.9
			c-1.4-0.3-2.7,0-4.4-0.1c-0.8,3.1,1.4,6.6-2.2,8.2c-0.8,0.2-2.1,0.1-2.9-0.5c-1.4-0.3-0.6-2.5-2.4-1.9l-1.1-0.2V42.9z"/>
		<path fill="#0C489C" d="M497.8,36.5c0.2,0.5,0,0.8,0.1,1.4c-2.3-0.6-5.1-1.3-7.2,0.4c-0.8,0.9-1.2,1.8-1.1,3
			c0.2,1.4,1.1,2.7,2.4,3.2c2,0.6,4,0.1,5.9-0.4c0.1,0.4,0.2,0.9,0,1.2H489c-1.5-0.3-2.7-1.1-3.4-2.7c-0.6-1.4-0.3-3.4,0.8-4.6
			c0.9-1.1,2.2-1.7,3.7-1.6L497.8,36.5z"/>
		<path fill="#0C489C" d="M513.5,43.6c-0.2,0.9-1,1.8-1.9,1.9H501l-0.4-0.2c0-3-0.1-5.9,0.1-8.9h6.8c2.1,0.2,4.5-0.7,5.5,1.3
			c0.3,0.7,0.2,1.6-0.3,2.1c-0.3,0.5-1,0.6-1.1,1c0.8,0.2,1.8,0.9,2.1,1.8V43.6z M504.4,37.4c-0.2,0.8-0.2,2-0.1,2.9
			c1.6-0.1,3.7,0.5,4.7-0.7c0.4-0.5,0.2-1.2-0.1-1.6C507.7,36.9,505.9,37.6,504.4,37.4z M508.5,41.6c-1.4-0.2-2.9-0.2-4.3-0.1
			c-0.1,1.1,0,2.1,0.2,3.1c1.5,0,3.2,0.2,4.6-0.5c0.4-0.4,0.6-1,0.5-1.5C509.3,42.2,509,41.8,508.5,41.6z"/>
	</g>
</g>
<g>
	<path fill="#F1F2F2" d="M697,76.1c0,2.3-1.9,4.2-4.2,4.2H575.7c-2.3,0-4.2-1.9-4.2-4.2v-70c0-2.3,1.9-4.2,4.2-4.2h117.1
		c2.3,0,4.2,1.9,4.2,4.2V76.1z"/>
	<path fill="#F58220" d="M606,80.3h86.8c2.3,0,4.2-1.9,4.2-4.2V46.8C688.6,52,657.2,70.2,606,80.3z"/>
	<g>
		
			<radialGradient id="SVGID_1_" cx="629.3442" cy="-444.9776" r="6.1806" gradientTransform="matrix(1 0 0 1 6.416 486.083)" gradientUnits="userSpaceOnUse">
			<stop  offset="5.618000e-003" style="stop-color:#FFEEE0"/>
			<stop  offset="0.1096" style="stop-color:#FEE9D7"/>
			<stop  offset="0.2793" style="stop-color:#FDDBBF"/>
			<stop  offset="0.4935" style="stop-color:#FBC597"/>
			<stop  offset="0.744" style="stop-color:#F8A560"/>
			<stop  offset="1" style="stop-color:#F48120"/>
		</radialGradient>
		<path fill="url(#SVGID_1_)" d="M635.8,35c-3.5,0-6.3,2.7-6.3,6c0,3.5,2.7,6.2,6.3,6.2c3.5,0,6.2-2.7,6.2-6.1
			C642,37.7,639.3,35,635.8,35z"/>
		<path fill="#001722" d="M600.2,35.2h-3.4V47h3.3c1.8,0,3.1-0.4,4.2-1.4c1.3-1.1,2.1-2.8,2.1-4.5C606.5,37.6,603.9,35.2,600.2,35.2
			z M602.9,44c-0.7,0.7-1.7,0.9-3.1,0.9h-0.6v-7.8h0.6c1.5,0,2.4,0.3,3.1,0.9c0.8,0.7,1.3,1.8,1.3,2.9
			C604.2,42.2,603.7,43.3,602.9,44z"/>
		<rect x="607.6" y="35.2" fill="#001722" width="2.3" height="11.7"/>
		<path fill="#001722" d="M615.5,39.7c-1.4-0.5-1.8-0.8-1.8-1.5c0-0.7,0.7-1.3,1.7-1.3c0.7,0,1.2,0.3,1.8,0.9l1.2-1.6
			c-1-0.9-2.2-1.3-3.5-1.3c-2.1,0-3.7,1.4-3.7,3.4c0,1.6,0.7,2.4,2.9,3.2c0.9,0.3,1.4,0.5,1.6,0.7c0.5,0.3,0.7,0.7,0.7,1.2
			c0,1-0.8,1.7-1.8,1.7c-1.1,0-2-0.5-2.5-1.6l-1.5,1.4c1.1,1.5,2.3,2.2,4.1,2.2c2.4,0,4-1.6,4-3.9C618.9,41.5,618.1,40.7,615.5,39.7
			z"/>
		<path fill="#001722" d="M619.6,41.1c0,3.5,2.7,6.1,6.2,6.1c1,0,1.8-0.2,2.9-0.7v-2.7c-0.9,0.9-1.7,1.3-2.8,1.3
			c-2.3,0-3.9-1.7-3.9-4c0-2.3,1.7-4,3.8-4c1.1,0,1.9,0.4,2.9,1.3v-2.7c-1-0.5-1.8-0.7-2.8-0.7C622.4,35,619.6,37.7,619.6,41.1z"/>
		<polygon fill="#001722" points="647.2,43.1 644.1,35.2 641.6,35.2 646.5,47.3 647.8,47.3 652.8,35.2 650.4,35.2 		"/>
		<polygon fill="#001722" points="653.9,47 660.4,47 660.4,45 656.2,45 656.2,41.8 660.2,41.8 660.2,39.8 656.2,39.8 656.2,37.2 
			660.4,37.2 660.4,35.2 653.9,35.2 		"/>
		<path fill="#001722" d="M669.4,38.7c0-2.2-1.5-3.5-4.2-3.5h-3.4V47h2.3v-4.7h0.3l3.2,4.7h2.8l-3.7-4.9
			C668.5,41.7,669.4,40.5,669.4,38.7z M664.8,40.6h-0.7v-3.6h0.7c1.4,0,2.2,0.6,2.2,1.7C667.1,40,666.3,40.6,664.8,40.6z"/>
		<path fill="#231F20" d="M671.1,36.1c0-0.2-0.1-0.3-0.4-0.3h-0.3v1h0.2v-0.4l0.3,0.4h0.3l-0.3-0.4C671,36.3,671.1,36.2,671.1,36.1z
			 M670.6,36.2L670.6,36.2l0-0.3h0c0.1,0,0.2,0,0.2,0.1C670.8,36.2,670.7,36.2,670.6,36.2z"/>
		<path fill="#231F20" d="M670.7,35.4c-0.5,0-0.9,0.4-0.9,0.9c0,0.5,0.4,0.9,0.9,0.9c0.5,0,0.9-0.4,0.9-0.9
			C671.6,35.8,671.2,35.4,670.7,35.4z M670.7,37c-0.4,0-0.7-0.3-0.7-0.7c0-0.4,0.3-0.7,0.7-0.7c0.4,0,0.7,0.3,0.7,0.7
			C671.4,36.7,671.1,37,670.7,37z"/>
	</g>
</g>
</svg>
